<svg id="svg" xmlns="http://www.w3.org/2000/svg" xmlns:xlink="http://www.w3.org/1999/xlink" width="400" height="400" viewBox="0, 0, 400,400"><g id="svgg"><path id="path0" d="M173.200 59.200 C 173.200 59.420,172.300 59.600,171.200 59.600 C 170.100 59.600,169.200 59.780,169.200 60.000 C 169.200 60.220,168.311 60.400,167.224 60.400 C 166.137 60.400,165.136 60.580,165.000 60.800 C 164.864 61.020,164.144 61.200,163.400 61.200 C 162.656 61.200,161.936 61.380,161.800 61.600 C 161.664 61.820,161.124 62.000,160.600 62.000 C 160.076 62.000,159.536 62.180,159.400 62.400 C 159.264 62.620,158.713 62.800,158.176 62.800 C 157.639 62.800,157.200 62.980,157.200 63.200 C 157.200 63.420,156.840 63.600,156.400 63.600 C 155.960 63.600,155.600 63.780,155.600 64.000 C 155.600 64.220,155.328 64.400,154.995 64.400 C 154.662 64.400,154.032 64.580,153.595 64.800 C 153.158 65.020,152.442 65.380,152.005 65.600 C 151.568 65.820,150.938 66.000,150.605 66.000 C 150.272 66.000,150.000 66.180,150.000 66.400 C 150.000 66.620,149.640 66.800,149.200 66.800 C 148.760 66.800,148.400 66.980,148.400 67.200 C 148.400 67.420,148.040 67.600,147.600 67.600 C 147.160 67.600,146.800 67.780,146.800 68.000 C 146.800 68.220,146.564 68.400,146.275 68.400 C 145.987 68.400,145.364 68.760,144.892 69.200 C 144.420 69.640,143.844 70.000,143.612 70.000 C 143.135 70.000,135.601 77.423,135.599 77.895 C 135.599 78.063,135.059 78.830,134.400 79.600 C 133.741 80.370,133.201 81.225,133.201 81.500 C 133.200 81.775,133.020 82.000,132.800 82.000 C 132.580 82.000,132.400 82.236,132.400 82.525 C 132.400 82.813,132.085 83.398,131.700 83.825 C 131.315 84.251,130.745 85.095,130.432 85.700 C 130.120 86.305,129.715 86.800,129.532 86.800 C 129.350 86.800,129.200 87.160,129.200 87.600 C 129.200 88.040,129.020 88.400,128.800 88.400 C 128.580 88.400,128.400 88.760,128.400 89.200 C 128.400 89.640,128.220 90.000,128.000 90.000 C 127.780 90.000,127.600 90.360,127.600 90.800 C 127.600 91.240,127.420 91.600,127.200 91.600 C 126.980 91.600,126.800 91.955,126.800 92.388 C 126.800 92.821,126.440 93.817,126.000 94.600 C 125.560 95.383,125.200 96.289,125.200 96.612 C 125.200 96.935,125.020 97.200,124.800 97.200 C 124.580 97.200,124.400 97.740,124.400 98.400 C 124.400 99.060,124.220 99.600,124.000 99.600 C 123.780 99.600,123.600 100.320,123.600 101.200 C 123.600 102.080,123.420 102.800,123.200 102.800 C 122.980 102.800,122.800 103.509,122.800 104.376 C 122.800 105.243,122.620 106.064,122.400 106.200 C 122.148 106.356,122.000 110.930,122.000 118.600 C 122.000 126.270,122.148 130.844,122.400 131.000 C 122.620 131.136,122.800 132.227,122.800 133.424 C 122.800 134.621,122.980 135.600,123.200 135.600 C 123.420 135.600,123.600 136.039,123.600 136.576 C 123.600 137.113,123.780 137.664,124.000 137.800 C 124.220 137.936,124.400 138.476,124.400 139.000 C 124.400 139.524,124.580 140.064,124.800 140.200 C 125.020 140.336,125.200 140.797,125.200 141.224 C 125.200 141.651,125.380 142.000,125.600 142.000 C 125.820 142.000,126.000 142.360,126.000 142.800 C 126.000 143.240,126.180 143.600,126.400 143.600 C 126.620 143.600,126.800 143.949,126.800 144.376 C 126.800 144.803,126.980 145.264,127.200 145.400 C 127.420 145.536,127.600 145.963,127.600 146.348 C 127.600 146.734,127.915 147.398,128.300 147.825 C 128.685 148.251,129.255 149.095,129.568 149.700 C 129.880 150.305,130.285 150.800,130.468 150.800 C 130.650 150.800,130.800 151.094,130.800 151.453 C 130.800 151.812,131.116 152.397,131.503 152.753 C 131.889 153.109,132.460 153.895,132.770 154.500 C 133.081 155.105,133.485 155.600,133.668 155.600 C 133.850 155.600,134.000 155.858,134.000 156.173 C 134.000 156.488,135.440 158.199,137.200 159.976 C 140.706 163.514,140.762 163.600,139.600 163.600 C 139.160 163.600,138.800 163.780,138.800 164.000 C 138.800 164.220,138.440 164.400,138.000 164.400 C 137.560 164.400,137.200 164.580,137.200 164.800 C 137.200 165.020,136.840 165.200,136.400 165.200 C 135.960 165.200,135.600 165.380,135.600 165.600 C 135.600 165.820,135.322 166.000,134.983 166.000 C 134.644 166.000,133.980 166.360,133.508 166.800 C 133.036 167.240,132.413 167.600,132.125 167.600 C 131.836 167.600,131.600 167.780,131.600 168.000 C 131.600 168.220,131.322 168.400,130.983 168.400 C 130.644 168.400,129.980 168.760,129.508 169.200 C 129.036 169.640,128.413 170.000,128.125 170.000 C 127.836 170.000,127.600 170.180,127.600 170.400 C 127.600 170.620,127.375 170.800,127.100 170.801 C 126.825 170.801,125.970 171.341,125.200 172.000 C 124.430 172.659,123.575 173.199,123.300 173.199 C 123.025 173.200,122.800 173.380,122.800 173.600 C 122.800 173.820,122.575 174.000,122.300 174.001 C 122.025 174.001,121.170 174.541,120.400 175.200 C 119.630 175.859,118.857 176.399,118.682 176.399 C 118.117 176.401,116.400 178.344,116.400 178.982 C 116.400 179.322,116.220 179.600,116.000 179.600 C 115.780 179.600,115.600 179.960,115.600 180.400 C 115.600 180.840,115.420 181.200,115.200 181.200 C 114.980 181.200,114.800 181.740,114.800 182.400 C 114.800 183.060,114.620 183.600,114.400 183.600 C 114.180 183.600,114.000 184.140,114.000 184.800 C 114.000 185.460,113.820 186.000,113.600 186.000 C 113.369 186.000,113.200 187.259,113.200 188.976 C 113.200 190.613,113.020 192.064,112.800 192.200 C 112.577 192.338,112.400 194.204,112.400 196.424 C 112.400 198.808,112.240 200.400,112.000 200.400 C 111.763 200.400,111.600 201.867,111.600 204.000 C 111.600 206.133,111.437 207.600,111.200 207.600 C 110.980 207.600,110.800 208.489,110.800 209.576 C 110.800 210.663,110.620 211.664,110.400 211.800 C 110.180 211.936,110.000 212.836,110.000 213.800 C 110.000 214.764,109.820 215.664,109.600 215.800 C 109.380 215.936,109.200 217.387,109.200 219.024 C 109.200 220.741,109.031 222.000,108.800 222.000 C 108.558 222.000,108.400 223.733,108.400 226.400 C 108.400 229.067,108.242 230.800,108.000 230.800 C 107.780 230.800,107.600 231.700,107.600 232.800 C 107.600 233.900,107.420 234.800,107.200 234.800 C 106.980 234.800,106.800 235.520,106.800 236.400 C 106.800 237.280,106.620 238.000,106.400 238.000 C 106.180 238.000,106.000 238.540,106.000 239.200 C 106.000 239.860,105.820 240.400,105.600 240.400 C 105.380 240.400,105.200 241.300,105.200 242.400 C 105.200 243.500,105.020 244.400,104.800 244.400 C 104.580 244.400,104.400 245.120,104.400 246.000 C 104.400 246.880,104.220 247.600,104.000 247.600 C 103.762 247.600,103.600 249.125,103.600 251.376 C 103.600 253.463,103.421 255.263,103.200 255.400 C 102.657 255.735,102.657 274.665,103.200 275.000 C 103.420 275.136,103.600 275.867,103.600 276.624 C 103.600 277.381,103.780 278.000,104.000 278.000 C 104.220 278.000,104.400 278.288,104.400 278.640 C 104.400 278.991,105.239 280.071,106.264 281.040 L 108.127 282.800 114.264 282.800 C 117.639 282.800,120.400 282.664,120.400 282.498 C 120.400 282.331,120.940 281.956,121.600 281.664 C 122.260 281.372,122.800 280.828,122.800 280.455 C 122.800 280.082,123.160 279.517,123.600 279.200 C 124.040 278.883,124.400 278.314,124.400 277.935 C 124.400 277.557,124.580 277.136,124.800 277.000 C 125.020 276.864,125.200 276.313,125.200 275.776 C 125.200 275.239,125.380 274.800,125.600 274.800 C 125.820 274.800,126.000 274.440,126.000 274.000 C 126.000 273.560,126.180 273.200,126.400 273.200 C 126.620 273.200,126.800 272.840,126.800 272.400 C 126.800 271.960,126.980 271.600,127.200 271.600 C 127.420 271.600,127.600 271.322,127.600 270.983 C 127.600 270.644,127.960 269.980,128.400 269.508 C 128.840 269.036,129.200 268.413,129.200 268.125 C 129.200 267.836,129.380 267.600,129.600 267.600 C 129.820 267.600,130.000 267.280,130.000 266.888 C 130.000 266.497,130.360 265.917,130.800 265.600 C 131.240 265.283,131.600 264.703,131.600 264.312 C 131.600 263.920,131.780 263.600,132.000 263.600 C 132.220 263.600,132.400 263.322,132.400 262.983 C 132.400 262.644,132.760 261.980,133.200 261.508 C 133.640 261.036,134.000 260.413,134.000 260.125 C 134.000 259.836,134.180 259.600,134.400 259.600 C 134.620 259.600,134.800 259.240,134.800 258.800 C 134.800 258.360,134.980 258.000,135.200 258.000 C 135.449 258.000,135.600 260.267,135.600 264.000 C 135.600 267.733,135.449 270.000,135.200 270.000 C 134.980 270.000,134.800 270.360,134.800 270.800 C 134.800 271.240,135.016 271.600,135.280 271.600 C 135.653 271.600,135.653 271.707,135.280 272.080 C 134.934 272.426,134.800 275.209,134.800 282.080 C 134.800 288.160,134.655 291.600,134.400 291.600 C 134.178 291.600,134.000 292.667,134.000 294.000 C 134.000 295.333,133.822 296.400,133.600 296.400 C 133.380 296.400,133.200 296.749,133.200 297.176 C 133.200 297.603,133.020 298.064,132.800 298.200 C 132.580 298.336,132.400 299.067,132.400 299.824 C 132.400 300.581,132.220 301.200,132.000 301.200 C 131.780 301.200,131.600 301.729,131.600 302.376 C 131.600 303.023,131.420 303.664,131.200 303.800 C 130.962 303.947,130.800 303.471,130.800 302.624 C 130.800 301.467,130.650 301.200,130.000 301.200 C 129.378 301.200,129.200 301.467,129.200 302.400 C 129.200 303.060,129.020 303.600,128.800 303.600 C 128.580 303.600,128.400 303.980,128.400 304.445 C 128.400 305.157,128.590 305.263,129.600 305.115 C 130.832 304.934,131.465 306.742,130.400 307.400 C 130.180 307.536,130.000 308.177,130.000 308.824 C 130.000 309.471,129.820 310.000,129.600 310.000 C 129.380 310.000,129.200 310.709,129.200 311.576 C 129.200 312.443,129.020 313.264,128.800 313.400 C 128.580 313.536,128.400 314.267,128.400 315.024 C 128.400 315.781,128.220 316.400,128.000 316.400 C 127.780 316.400,127.600 317.300,127.600 318.400 C 127.600 319.500,127.420 320.400,127.200 320.400 C 126.972 320.400,126.800 321.592,126.800 323.176 C 126.800 324.703,126.620 326.064,126.400 326.200 C 126.180 326.336,126.000 326.821,126.000 327.277 C 126.000 328.092,124.185 329.996,123.400 330.003 C 122.875 330.007,122.000 331.917,122.000 333.056 C 122.000 333.549,121.820 334.064,121.600 334.200 C 121.380 334.336,121.200 335.067,121.200 335.824 C 121.200 336.581,121.020 337.200,120.800 337.200 C 120.580 337.200,120.400 337.658,120.400 338.218 C 120.400 339.326,119.233 340.673,117.500 341.568 C 116.895 341.880,116.400 342.285,116.400 342.468 C 116.400 342.650,116.040 342.800,115.600 342.800 C 115.160 342.800,114.800 342.980,114.800 343.200 C 114.800 343.420,114.260 343.600,113.600 343.600 C 112.940 343.600,112.400 343.780,112.400 344.000 C 112.400 344.220,112.040 344.400,111.600 344.400 C 111.160 344.400,110.800 344.580,110.800 344.800 C 110.800 345.020,110.506 345.200,110.147 345.200 C 109.788 345.200,109.203 345.527,108.847 345.928 C 108.491 346.328,107.885 346.772,107.500 346.915 C 107.086 347.069,106.800 347.589,106.800 348.187 C 106.800 348.744,106.620 349.200,106.400 349.200 C 106.180 349.200,106.000 349.740,106.000 350.400 C 106.000 351.060,105.820 351.600,105.600 351.600 C 105.380 351.600,105.200 352.140,105.200 352.800 C 105.200 353.460,105.020 354.000,104.800 354.000 C 104.580 354.000,104.400 354.439,104.400 354.976 C 104.400 355.513,104.220 356.064,104.000 356.200 C 103.780 356.336,103.600 356.876,103.600 357.400 C 103.600 357.924,103.420 358.464,103.200 358.600 C 102.980 358.736,102.800 359.377,102.800 360.024 C 102.800 360.671,102.620 361.200,102.400 361.200 C 102.180 361.200,102.000 361.740,102.000 362.400 C 102.000 363.060,101.820 363.600,101.600 363.600 C 101.378 363.600,101.200 364.667,101.200 366.000 C 101.200 367.333,101.378 368.400,101.600 368.400 C 101.820 368.400,102.000 368.940,102.000 369.600 C 102.000 370.260,102.180 370.800,102.400 370.800 C 102.620 370.800,102.800 371.340,102.800 372.000 C 102.800 372.660,102.980 373.200,103.200 373.200 C 103.420 373.200,103.600 373.639,103.600 374.176 C 103.600 374.713,103.780 375.264,104.000 375.400 C 104.220 375.536,104.400 376.177,104.400 376.824 C 104.400 377.471,104.580 378.000,104.800 378.000 C 105.020 378.000,105.200 378.360,105.200 378.800 C 105.200 379.240,105.380 379.600,105.600 379.600 C 105.820 379.600,106.000 379.960,106.000 380.400 C 106.000 380.840,106.180 381.200,106.400 381.200 C 106.620 381.200,106.800 381.454,106.800 381.763 C 106.800 382.485,113.049 388.819,114.500 389.568 C 115.105 389.880,115.600 390.285,115.600 390.468 C 115.600 390.650,115.834 390.800,116.120 390.800 C 116.856 390.800,118.793 391.741,118.797 392.100 C 118.799 392.265,119.149 392.400,119.576 392.400 C 120.003 392.400,120.464 392.580,120.600 392.800 C 120.736 393.020,121.287 393.200,121.824 393.200 C 122.361 393.200,122.800 393.380,122.800 393.600 C 122.800 393.848,124.933 394.000,128.400 394.000 C 131.867 394.000,134.000 394.152,134.000 394.400 C 134.000 394.620,134.720 394.800,135.600 394.800 C 136.480 394.800,137.200 394.980,137.200 395.200 C 137.200 395.429,138.400 395.600,140.000 395.600 C 141.600 395.600,142.800 395.771,142.800 396.000 C 142.800 396.259,148.000 396.400,157.600 396.400 C 167.200 396.400,172.400 396.259,172.400 396.000 C 172.400 395.765,173.792 395.600,175.776 395.600 C 177.633 395.600,179.264 395.420,179.400 395.200 C 179.540 394.973,181.537 394.800,184.024 394.800 C 186.675 394.800,188.400 394.642,188.400 394.400 C 188.400 394.144,191.867 394.000,198.000 394.000 C 204.133 394.000,207.600 393.856,207.600 393.600 C 207.600 393.344,211.333 393.200,218.000 393.200 C 224.667 393.200,228.400 393.056,228.400 392.800 C 228.400 392.580,229.199 392.400,230.176 392.400 C 231.153 392.400,232.064 392.220,232.200 392.000 C 232.347 391.762,234.871 391.600,238.424 391.600 C 242.141 391.600,244.400 391.449,244.400 391.200 C 244.400 390.980,245.120 390.800,246.000 390.800 C 246.880 390.800,247.600 390.620,247.600 390.400 C 247.600 390.180,248.320 390.000,249.200 390.000 C 250.080 390.000,250.800 389.820,250.800 389.600 C 250.800 389.380,251.340 389.200,252.000 389.200 C 252.660 389.200,253.200 389.020,253.200 388.800 C 253.200 388.580,253.920 388.400,254.800 388.400 C 255.680 388.400,256.400 388.220,256.400 388.000 C 256.400 387.780,257.120 387.600,258.000 387.600 C 258.880 387.600,259.600 387.420,259.600 387.200 C 259.600 386.980,260.140 386.800,260.800 386.800 C 261.460 386.800,262.000 386.620,262.000 386.400 C 262.000 386.180,262.500 386.000,263.112 386.000 C 263.765 386.000,264.461 385.670,264.800 385.200 C 265.117 384.760,265.611 384.400,265.897 384.400 C 266.571 384.400,270.431 380.514,271.168 379.094 C 271.480 378.492,271.885 378.000,272.068 378.000 C 272.250 378.000,272.400 377.722,272.400 377.383 C 272.400 377.044,272.760 376.380,273.200 375.908 C 273.825 375.237,274.000 374.496,274.000 372.525 C 274.000 371.108,274.176 370.000,274.400 370.000 C 274.631 370.000,274.800 368.741,274.800 367.024 C 274.800 365.387,274.620 363.936,274.400 363.800 C 274.180 363.664,274.000 362.663,274.000 361.576 C 274.000 360.489,273.820 359.600,273.600 359.600 C 273.380 359.600,273.200 358.880,273.200 358.000 C 273.200 357.120,273.020 356.400,272.800 356.400 C 272.580 356.400,272.400 355.860,272.400 355.200 C 272.400 354.540,272.220 354.000,272.000 354.000 C 271.780 354.000,271.600 353.640,271.600 353.200 C 271.600 352.760,271.420 352.400,271.200 352.400 C 270.980 352.400,270.800 351.871,270.800 351.224 C 270.800 350.577,270.620 349.936,270.400 349.800 C 270.180 349.664,270.000 349.113,270.000 348.576 C 270.000 348.039,269.820 347.600,269.600 347.600 C 269.380 347.600,269.200 347.240,269.200 346.800 C 269.200 346.360,269.020 346.000,268.800 346.000 C 268.580 346.000,268.400 345.640,268.400 345.200 C 268.400 344.760,268.220 344.400,268.000 344.400 C 267.780 344.400,267.600 344.080,267.600 343.688 C 267.600 343.297,267.240 342.717,266.800 342.400 C 266.360 342.083,266.000 341.543,266.000 341.200 C 266.000 340.857,265.640 340.317,265.200 340.000 C 264.760 339.683,264.400 339.103,264.400 338.712 C 264.400 338.320,264.250 338.000,264.068 338.000 C 263.885 338.000,263.480 337.508,263.168 336.907 C 262.855 336.306,262.105 335.289,261.500 334.648 C 260.895 334.006,260.400 333.310,260.400 333.101 C 260.400 332.892,259.860 332.217,259.200 331.600 C 258.540 330.983,258.000 330.263,258.000 330.000 C 258.000 329.737,257.460 329.017,256.800 328.400 C 256.140 327.783,255.600 327.031,255.600 326.728 C 255.600 326.425,255.240 325.917,254.800 325.600 C 254.360 325.283,254.000 324.769,254.000 324.459 C 254.000 324.148,253.684 323.603,253.297 323.247 C 252.911 322.891,252.340 322.105,252.030 321.500 C 251.719 320.895,251.315 320.400,251.132 320.400 C 250.950 320.400,250.800 320.040,250.800 319.600 C 250.800 319.160,250.620 318.800,250.400 318.800 C 250.180 318.800,250.000 318.440,250.000 318.000 C 250.000 317.560,249.820 317.200,249.600 317.200 C 249.380 317.200,249.200 316.842,249.200 316.403 C 249.200 315.965,248.840 315.382,248.400 315.107 C 247.914 314.804,247.600 314.174,247.600 313.504 C 247.600 312.897,247.420 312.400,247.200 312.400 C 246.980 312.400,246.800 311.942,246.800 311.383 C 246.800 310.824,246.440 309.980,246.000 309.508 C 245.560 309.036,245.200 308.413,245.200 308.125 C 245.200 307.836,245.020 307.600,244.800 307.600 C 244.580 307.600,244.400 307.060,244.400 306.400 C 244.400 305.740,244.220 305.200,244.000 305.200 C 243.780 305.200,243.600 304.660,243.600 304.000 C 243.600 303.340,243.420 302.800,243.200 302.800 C 242.980 302.800,242.800 302.300,242.800 301.688 C 242.800 301.035,242.470 300.339,242.000 300.000 C 241.560 299.683,241.200 299.103,241.200 298.712 C 241.200 298.320,241.020 298.000,240.800 298.000 C 240.580 298.000,240.400 297.475,240.400 296.833 C 240.400 296.192,240.175 295.562,239.900 295.433 C 239.500 295.247,239.500 295.153,239.900 294.967 C 240.493 294.690,240.577 293.200,240.000 293.200 C 239.780 293.200,239.600 292.840,239.600 292.400 C 239.600 291.960,239.420 291.600,239.200 291.600 C 238.980 291.600,238.800 290.880,238.800 290.000 C 238.800 288.667,238.667 288.400,238.000 288.400 C 237.381 288.400,237.200 288.133,237.200 287.224 C 237.200 286.577,237.020 285.936,236.800 285.800 C 236.580 285.664,236.400 285.113,236.400 284.576 C 236.400 283.867,236.182 283.600,235.600 283.600 C 234.978 283.600,234.800 283.333,234.800 282.400 C 234.800 281.740,234.620 281.200,234.400 281.200 C 234.180 281.200,234.000 280.660,234.000 280.000 C 234.000 279.067,233.822 278.800,233.200 278.800 C 232.667 278.800,232.400 278.533,232.400 278.000 C 232.400 277.238,232.667 277.200,238.000 277.200 C 241.467 277.200,243.600 277.352,243.600 277.600 C 243.600 277.820,244.140 278.000,244.800 278.000 C 245.460 278.000,246.000 277.820,246.000 277.600 C 246.000 277.380,246.276 277.200,246.613 277.200 C 247.409 277.200,250.000 274.609,250.000 273.813 C 250.000 273.476,250.180 273.200,250.400 273.200 C 250.620 273.200,250.800 272.840,250.800 272.400 C 250.800 271.960,250.980 271.600,251.200 271.600 C 251.420 271.600,251.600 271.060,251.600 270.400 C 251.600 269.740,251.780 269.200,252.000 269.200 C 252.220 269.200,252.400 268.480,252.400 267.600 C 252.400 266.720,252.580 266.000,252.800 266.000 C 253.020 266.000,253.200 265.280,253.200 264.400 C 253.200 263.520,253.380 262.800,253.600 262.800 C 253.820 262.800,254.000 262.091,254.000 261.224 C 254.000 260.357,254.180 259.536,254.400 259.400 C 254.620 259.264,254.800 258.544,254.800 257.800 C 254.800 257.056,254.980 256.336,255.200 256.200 C 255.420 256.064,255.600 254.973,255.600 253.776 C 255.600 252.579,255.780 251.600,256.000 251.600 C 256.222 251.600,256.400 250.533,256.400 249.200 C 256.400 247.867,256.578 246.800,256.800 246.800 C 257.061 246.800,257.200 240.608,257.200 229.024 C 257.200 217.604,257.057 211.159,256.800 211.000 C 256.580 210.864,256.400 209.683,256.400 208.376 C 256.400 207.059,256.222 206.000,256.000 206.000 C 255.780 206.000,255.600 205.111,255.600 204.024 C 255.600 202.937,255.420 201.936,255.200 201.800 C 254.980 201.664,254.800 200.933,254.800 200.176 C 254.800 199.419,254.620 198.800,254.400 198.800 C 254.180 198.800,254.000 198.260,254.000 197.600 C 254.000 196.940,253.820 196.400,253.600 196.400 C 253.380 196.400,253.200 195.860,253.200 195.200 C 253.200 194.540,253.020 194.000,252.800 194.000 C 252.580 194.000,252.400 193.640,252.400 193.200 C 252.400 192.760,252.220 192.400,252.000 192.400 C 251.780 192.400,251.600 192.040,251.600 191.600 C 251.600 191.160,251.420 190.800,251.200 190.800 C 250.980 190.800,250.800 190.361,250.800 189.824 C 250.800 189.287,250.620 188.736,250.400 188.600 C 250.180 188.464,250.000 188.003,250.000 187.576 C 250.000 187.149,249.820 186.800,249.600 186.800 C 249.380 186.800,249.200 186.440,249.200 186.000 C 249.200 185.560,249.020 185.200,248.800 185.200 C 248.580 185.200,248.400 184.840,248.400 184.400 C 248.400 183.960,248.220 183.600,248.000 183.600 C 247.780 183.600,247.600 183.240,247.600 182.800 C 247.600 182.360,247.420 182.000,247.200 182.000 C 246.980 182.000,246.800 181.640,246.800 181.200 C 246.800 180.760,246.620 180.400,246.400 180.400 C 246.180 180.400,246.000 179.860,246.000 179.200 C 246.000 178.540,245.820 178.000,245.600 178.000 C 245.380 178.000,245.200 177.529,245.200 176.954 C 245.200 175.677,242.663 173.200,241.355 173.200 C 240.866 173.200,240.407 173.065,240.333 172.900 C 240.166 172.524,238.036 171.225,237.100 170.929 C 236.715 170.807,236.400 170.548,236.400 170.353 C 236.400 170.159,236.040 170.000,235.600 170.000 C 235.160 170.000,234.800 169.820,234.800 169.600 C 234.800 169.380,234.440 169.200,234.000 169.200 C 233.560 169.200,233.200 169.020,233.200 168.800 C 233.200 168.580,232.840 168.400,232.400 168.400 C 231.960 168.400,231.600 168.220,231.600 168.000 C 231.600 167.780,231.240 167.600,230.800 167.600 C 230.360 167.600,230.000 167.420,230.000 167.200 C 230.000 166.980,229.561 166.800,229.024 166.800 C 228.487 166.800,227.936 166.620,227.800 166.400 C 227.664 166.180,227.203 166.000,226.776 166.000 C 226.349 166.000,226.000 165.820,226.000 165.600 C 226.000 165.380,225.460 165.200,224.800 165.200 C 224.140 165.200,223.600 165.020,223.600 164.800 C 223.600 164.580,223.240 164.400,222.800 164.400 C 222.360 164.400,222.000 164.220,222.000 164.000 C 222.000 163.780,221.523 163.600,220.941 163.600 L 219.881 163.600 221.137 162.400 C 221.828 161.740,222.577 161.200,222.803 161.200 C 223.396 161.200,228.897 155.583,229.568 154.292 C 229.880 153.692,230.285 153.200,230.468 153.200 C 230.650 153.200,230.800 152.922,230.800 152.583 C 230.800 152.244,231.160 151.580,231.600 151.108 C 232.040 150.636,232.400 150.013,232.400 149.725 C 232.400 149.436,232.580 149.200,232.800 149.200 C 233.020 149.200,233.200 148.840,233.200 148.400 C 233.200 147.960,233.380 147.600,233.600 147.600 C 233.820 147.600,234.000 147.240,234.000 146.800 C 234.000 146.360,234.180 146.000,234.400 146.000 C 234.620 146.000,234.800 145.640,234.800 145.200 C 234.800 144.760,234.980 144.400,235.200 144.400 C 235.420 144.400,235.600 143.860,235.600 143.200 C 235.600 142.540,235.780 142.000,236.000 142.000 C 236.220 142.000,236.400 141.460,236.400 140.800 C 236.400 140.140,236.580 139.600,236.800 139.600 C 237.020 139.600,237.200 139.060,237.200 138.400 C 237.200 137.740,237.380 137.200,237.600 137.200 C 237.820 137.200,238.000 136.480,238.000 135.600 C 238.000 134.720,238.180 134.000,238.400 134.000 C 238.657 134.000,238.800 129.867,238.800 122.400 C 238.800 114.933,238.657 110.800,238.400 110.800 C 238.178 110.800,238.000 109.741,238.000 108.424 C 238.000 107.117,237.820 105.936,237.600 105.800 C 237.380 105.664,237.200 104.584,237.200 103.400 C 237.200 102.216,237.020 101.136,236.800 101.000 C 236.580 100.864,236.400 100.311,236.400 99.771 C 236.400 99.231,236.243 98.477,236.050 98.095 C 234.486 94.989,234.000 93.821,234.000 93.162 C 234.000 92.743,233.820 92.400,233.600 92.400 C 233.380 92.400,233.200 92.040,233.200 91.600 C 233.200 91.160,233.020 90.800,232.800 90.800 C 232.580 90.800,232.400 90.455,232.400 90.033 C 232.400 89.612,232.265 89.207,232.100 89.133 C 231.724 88.966,230.425 86.836,230.129 85.900 C 230.007 85.515,229.748 85.200,229.553 85.200 C 229.359 85.200,229.200 84.840,229.200 84.400 C 229.200 83.960,229.020 83.600,228.800 83.600 C 228.580 83.600,228.400 83.306,228.400 82.947 C 228.400 82.588,228.084 82.003,227.697 81.647 C 227.311 81.291,226.740 80.505,226.430 79.900 C 226.119 79.295,225.715 78.800,225.532 78.800 C 225.350 78.800,225.200 78.526,225.200 78.191 C 225.200 77.501,221.049 73.200,220.383 73.200 C 220.144 73.200,219.105 72.345,218.074 71.300 C 217.043 70.255,215.705 69.145,215.100 68.832 C 214.495 68.520,214.000 68.115,214.000 67.932 C 214.000 67.750,213.640 67.600,213.200 67.600 C 212.760 67.600,212.400 67.420,212.400 67.200 C 212.400 66.980,212.080 66.800,211.688 66.800 C 211.297 66.800,210.717 66.440,210.400 66.000 C 210.083 65.560,209.503 65.200,209.112 65.200 C 208.720 65.200,208.399 65.065,208.397 64.900 C 208.393 64.541,206.456 63.600,205.720 63.600 C 205.434 63.600,205.200 63.420,205.200 63.200 C 205.200 62.980,204.851 62.800,204.424 62.800 C 203.997 62.800,203.536 62.620,203.400 62.400 C 203.264 62.180,202.711 62.000,202.171 62.000 C 201.225 62.000,200.859 61.872,198.905 60.862 C 198.413 60.608,197.648 60.400,197.205 60.400 C 196.762 60.400,196.400 60.220,196.400 60.000 C 196.400 59.780,195.781 59.600,195.024 59.600 C 194.267 59.600,193.536 59.420,193.400 59.200 C 193.246 58.951,189.396 58.800,183.176 58.800 C 176.792 58.800,173.200 58.944,173.200 59.200 M190.726 69.216 C 192.116 69.441,193.556 69.796,193.926 70.004 C 194.297 70.212,196.022 70.844,197.760 71.408 C 201.449 72.607,204.248 73.831,204.600 74.400 C 204.737 74.621,205.618 75.153,206.559 75.581 C 207.500 76.010,208.501 76.639,208.784 76.980 C 209.066 77.321,209.507 77.600,209.761 77.600 C 210.016 77.600,211.294 78.680,212.600 80.000 C 213.906 81.320,215.172 82.400,215.414 82.400 C 215.655 82.400,216.280 83.165,216.801 84.100 C 217.323 85.035,218.362 86.675,219.109 87.744 C 229.348 102.394,232.037 127.354,224.985 142.283 C 224.651 142.989,224.203 143.675,223.988 143.807 C 223.774 143.940,223.250 144.803,222.824 145.724 C 221.441 148.721,215.446 154.166,212.400 155.191 C 210.970 155.673,209.037 156.412,208.104 156.833 C 207.172 157.255,206.173 157.600,205.884 157.600 C 205.596 157.600,205.189 157.759,204.980 157.953 C 204.771 158.148,203.430 158.703,202.000 159.186 C 197.829 160.598,197.039 161.062,196.414 162.475 C 194.999 165.673,196.467 167.901,200.800 169.131 C 203.558 169.914,207.428 170.871,209.000 171.159 C 210.576 171.448,212.685 172.031,218.200 173.701 C 221.151 174.594,223.932 175.684,225.600 176.599 C 226.520 177.104,227.194 177.435,230.000 178.760 C 231.819 179.618,232.838 180.287,233.947 181.350 C 234.550 181.927,235.234 182.400,235.466 182.400 C 235.916 182.400,236.279 183.083,239.823 190.600 C 244.748 201.046,245.730 204.472,246.984 215.565 C 247.427 219.492,247.472 221.073,247.149 221.461 C 246.865 221.804,246.814 222.669,247.007 223.896 C 247.443 226.669,247.285 243.157,246.807 244.797 C 246.583 245.566,246.398 246.916,246.396 247.797 C 246.393 248.679,246.101 250.300,245.747 251.400 C 245.392 252.500,244.952 254.210,244.769 255.200 C 244.459 256.877,244.180 258.194,243.221 262.500 C 242.193 267.119,242.517 266.747,238.292 268.160 C 233.356 269.811,231.383 268.301,233.393 264.413 C 233.913 263.408,233.915 263.094,233.408 261.881 C 232.804 260.435,232.743 255.026,233.320 254.116 C 233.489 253.850,233.413 253.289,233.150 252.869 C 232.863 252.409,232.803 251.807,233.000 251.353 C 233.180 250.939,233.283 250.420,233.228 250.200 C 233.174 249.980,232.965 248.450,232.764 246.800 C 232.355 243.438,231.743 239.409,231.457 238.200 C 231.353 237.760,231.060 236.320,230.806 235.000 C 230.552 233.680,229.816 230.845,229.172 228.700 C 228.527 226.555,227.446 222.955,226.769 220.700 C 222.290 205.779,221.540 204.535,217.560 205.409 C 213.749 206.246,213.546 209.001,216.602 218.380 C 218.856 225.296,218.759 224.441,219.219 241.600 C 219.434 249.630,219.791 258.450,220.013 261.200 C 220.235 263.950,220.575 268.540,220.769 271.400 C 221.225 278.126,224.598 287.987,227.815 292.000 C 228.079 292.330,229.696 296.830,231.408 302.000 C 233.119 307.170,234.841 311.815,235.234 312.321 C 235.627 312.828,236.422 314.663,237.000 316.400 C 237.578 318.137,238.375 319.972,238.771 320.479 C 239.166 320.985,239.617 321.805,239.772 322.300 C 239.927 322.795,240.202 323.200,240.384 323.200 C 240.565 323.200,241.017 323.875,241.387 324.700 C 241.758 325.525,242.584 327.100,243.222 328.200 C 243.860 329.300,244.690 330.785,245.065 331.500 C 245.441 332.215,245.873 332.800,246.026 332.800 C 246.178 332.800,246.521 333.327,246.788 333.972 C 247.067 334.644,247.859 335.422,248.647 335.795 C 249.402 336.154,250.466 337.111,251.012 337.923 C 251.557 338.736,252.631 340.210,253.397 341.200 C 254.679 342.856,256.766 345.938,258.720 349.059 C 260.068 351.211,260.917 354.330,260.651 356.145 C 259.733 362.385,258.849 365.575,257.641 367.000 C 257.269 367.440,256.711 368.340,256.403 369.000 C 255.626 370.664,252.446 373.940,251.000 374.567 C 247.060 376.275,246.689 376.316,244.013 375.335 C 240.968 374.218,237.631 370.038,237.590 367.288 C 237.572 366.107,235.851 361.488,234.700 359.529 C 234.095 358.500,233.600 357.431,233.600 357.155 C 233.600 356.878,233.269 356.280,232.865 355.826 C 232.460 355.372,231.902 354.370,231.624 353.600 C 230.867 351.501,230.306 350.315,229.514 349.138 C 229.121 348.554,228.800 347.811,228.800 347.487 C 228.800 347.163,228.539 346.681,228.219 346.416 C 227.900 346.151,227.215 345.094,226.697 344.067 C 225.626 341.942,225.259 341.244,224.030 339.000 C 223.548 338.120,222.905 336.846,222.600 336.168 C 222.295 335.491,221.766 334.704,221.423 334.419 C 221.080 334.135,220.800 333.669,220.800 333.384 C 220.800 332.122,217.873 326.763,215.747 324.133 C 215.006 323.216,214.400 322.298,214.400 322.094 C 214.400 321.559,213.212 319.254,212.807 319.004 C 212.618 318.888,212.075 317.535,211.599 315.998 C 211.124 314.461,210.524 313.067,210.267 312.902 C 209.788 312.592,209.395 311.962,207.732 308.834 C 207.207 307.846,206.536 306.759,206.242 306.419 C 205.948 306.078,205.598 305.337,205.464 304.771 C 205.330 304.205,204.766 303.072,204.210 302.253 C 203.655 301.434,203.200 300.530,203.200 300.244 C 203.200 299.958,202.868 299.423,202.462 299.056 C 202.056 298.689,201.488 297.674,201.200 296.800 C 200.912 295.926,200.344 294.911,199.938 294.544 C 199.532 294.177,199.200 293.572,199.200 293.200 C 199.200 292.828,198.870 292.226,198.467 291.861 C 198.064 291.496,197.306 289.893,196.784 288.299 C 196.261 286.704,195.510 284.810,195.116 284.088 C 194.722 283.366,194.400 282.509,194.400 282.182 C 194.400 281.856,194.242 281.277,194.049 280.895 C 193.544 279.896,192.800 277.441,192.800 276.775 C 192.800 275.955,190.075 270.560,189.361 269.968 C 189.026 269.690,187.695 269.467,186.375 269.467 C 182.165 269.467,181.002 271.387,179.995 280.000 C 179.445 284.707,178.537 288.021,177.646 288.571 C 177.425 288.708,176.504 290.341,175.600 292.200 C 174.696 294.059,173.796 295.679,173.600 295.800 C 173.404 295.921,172.520 297.509,171.635 299.328 C 170.751 301.147,169.571 303.064,169.013 303.587 C 168.456 304.111,168.000 304.744,168.000 304.995 C 168.000 305.245,167.460 305.968,166.800 306.600 C 166.140 307.232,165.600 307.964,165.600 308.226 C 165.600 308.488,165.343 308.915,165.029 309.176 C 164.443 309.662,159.702 319.087,158.780 321.600 C 158.497 322.370,158.149 323.180,158.005 323.400 C 157.862 323.620,157.548 324.520,157.308 325.400 C 156.890 326.935,156.640 328.112,155.609 333.400 C 154.776 337.667,153.029 343.454,152.353 344.180 C 152.159 344.389,152.000 344.803,152.000 345.099 C 152.000 345.396,151.640 346.384,151.200 347.294 C 150.760 348.205,150.400 349.098,150.400 349.279 C 150.400 349.461,150.057 350.372,149.637 351.304 C 149.217 352.237,148.759 353.540,148.619 354.200 C 148.479 354.860,148.181 356.120,147.957 357.000 C 147.732 357.880,147.402 359.590,147.221 360.800 C 146.533 365.420,143.472 373.304,141.966 374.335 C 139.335 376.135,133.718 374.993,128.490 371.596 C 125.694 369.779,124.533 367.833,123.960 364.000 C 123.779 362.790,123.520 361.255,123.383 360.588 C 123.199 359.688,123.543 358.402,124.722 355.588 C 125.595 353.505,126.532 350.900,126.804 349.800 C 127.531 346.863,128.143 345.057,129.919 340.600 C 130.796 338.400,132.362 333.990,133.399 330.800 C 134.436 327.610,135.553 324.280,135.881 323.400 C 137.266 319.692,139.661 312.096,140.797 307.810 C 141.469 305.278,142.196 302.738,142.413 302.166 C 143.387 299.603,143.946 294.780,144.169 287.000 C 144.301 282.380,144.600 277.430,144.833 276.000 C 145.067 274.570,145.237 273.130,145.213 272.800 C 144.969 269.493,144.964 261.274,145.206 260.826 C 145.376 260.510,145.337 259.860,145.119 259.381 C 144.826 258.739,144.894 258.178,145.377 257.244 C 145.989 256.061,145.985 255.899,145.324 254.779 C 144.784 253.864,144.719 253.418,145.052 252.890 C 145.348 252.422,145.363 251.841,145.100 251.085 C 144.886 250.472,144.822 248.672,144.958 247.085 C 145.094 245.498,145.200 243.885,145.195 243.500 C 145.190 243.115,145.191 242.350,145.198 241.800 C 145.276 235.678,145.248 232.431,145.091 229.400 C 144.988 227.420,145.066 225.595,145.264 225.345 C 145.603 224.916,145.374 224.057,144.297 221.727 C 144.075 221.247,144.034 220.527,144.207 220.127 C 146.409 215.010,146.926 209.993,145.414 208.414 C 141.774 204.615,136.834 208.560,135.914 216.000 C 135.737 217.430,135.406 219.770,135.178 221.200 C 134.951 222.630,134.599 225.690,134.397 228.000 C 134.195 230.310,133.853 233.010,133.637 234.000 C 133.421 234.990,133.086 236.520,132.892 237.400 C 132.699 238.280,131.969 240.196,131.270 241.657 C 130.572 243.119,129.996 244.469,129.991 244.657 C 129.986 244.846,129.450 246.080,128.800 247.400 C 128.150 248.720,127.614 249.945,127.609 250.122 C 127.592 250.714,126.007 253.948,125.614 254.191 C 125.401 254.323,124.682 255.570,124.018 256.963 C 123.353 258.355,122.538 259.720,122.205 259.996 C 121.872 260.272,121.600 260.724,121.600 261.000 C 121.600 261.276,121.328 261.728,120.995 262.004 C 120.662 262.280,119.847 263.645,119.182 265.037 C 118.518 266.430,117.795 267.679,117.577 267.814 C 117.359 267.949,116.704 269.126,116.122 270.430 C 114.985 272.979,114.057 273.462,113.298 271.900 C 112.891 271.063,112.707 270.369,112.130 267.496 C 112.004 266.872,112.128 266.128,112.414 265.783 C 112.823 265.290,112.819 264.983,112.393 264.186 C 111.999 263.451,111.974 262.971,112.295 262.300 C 112.532 261.805,112.941 259.510,113.204 257.200 C 113.886 251.221,114.674 246.611,115.602 243.177 C 117.148 237.451,118.636 228.705,118.188 227.980 C 118.070 227.790,118.254 226.430,118.595 224.958 C 118.937 223.486,119.123 221.989,119.010 221.631 C 118.897 221.274,118.987 220.356,119.211 219.591 C 120.216 216.157,121.117 210.331,122.023 201.400 C 122.622 195.504,123.522 188.695,123.827 187.759 C 124.751 184.928,125.003 184.677,130.854 180.764 C 134.114 178.584,136.888 176.800,137.018 176.800 C 137.149 176.800,138.008 176.297,138.928 175.683 C 139.848 175.068,141.860 173.951,143.400 173.200 C 144.940 172.449,146.920 171.369,147.800 170.800 C 150.234 169.226,151.458 168.800,153.549 168.800 C 157.561 168.800,159.412 164.307,156.655 161.261 C 156.270 160.836,154.480 159.635,152.678 158.594 C 146.875 155.240,143.200 152.444,143.200 151.384 C 143.200 151.131,142.840 150.598,142.400 150.200 C 141.960 149.802,141.600 149.262,141.600 149.000 C 141.600 148.738,141.240 148.198,140.800 147.800 C 140.360 147.402,140.000 146.862,140.000 146.600 C 140.000 146.338,139.640 145.798,139.200 145.400 C 138.760 145.002,138.400 144.456,138.400 144.187 C 138.400 143.918,138.128 143.472,137.795 143.196 C 136.306 141.960,133.228 133.877,132.466 129.200 C 131.558 123.629,131.047 114.910,131.586 114.200 C 131.753 113.980,132.004 112.659,132.143 111.265 C 132.491 107.768,133.876 102.222,135.035 99.688 C 135.566 98.527,136.000 97.497,136.000 97.400 C 136.000 95.535,144.448 82.832,147.071 80.753 C 150.772 77.821,153.417 76.137,155.800 75.196 C 157.120 74.675,158.779 73.929,159.486 73.539 C 162.295 71.989,168.437 70.367,176.400 69.072 C 178.519 68.727,188.321 68.826,190.726 69.216 M207.200 127.192 C 206.430 127.588,204.990 128.145,204.000 128.428 C 203.010 128.712,202.019 129.077,201.799 129.239 C 200.136 130.462,177.333 130.829,167.800 129.786 C 158.711 128.792,155.926 128.452,153.600 128.053 C 148.174 127.121,145.379 128.665,145.552 132.497 C 145.698 135.751,146.764 136.634,150.928 136.953 C 152.728 137.091,155.550 137.379,157.200 137.594 C 158.850 137.808,161.640 138.169,163.400 138.396 C 169.115 139.132,184.007 139.552,192.814 139.225 C 208.917 138.628,216.928 134.564,213.818 128.569 C 212.687 126.390,209.888 125.807,207.200 127.192 M188.218 293.382 C 188.758 293.922,189.200 294.822,189.200 295.382 C 189.200 295.942,189.380 296.400,189.600 296.400 C 189.820 296.400,190.000 296.940,190.000 297.600 C 190.000 298.260,190.180 298.800,190.400 298.800 C 190.620 298.800,190.800 299.340,190.800 300.000 C 190.800 300.660,190.980 301.200,191.200 301.200 C 191.420 301.200,191.600 301.740,191.600 302.400 C 191.600 303.060,191.780 303.600,192.000 303.600 C 192.220 303.600,192.400 304.140,192.400 304.800 C 192.400 305.460,192.580 306.000,192.800 306.000 C 193.020 306.000,193.200 306.540,193.200 307.200 C 193.200 307.860,193.380 308.400,193.600 308.400 C 193.820 308.400,194.000 308.940,194.000 309.600 C 194.000 310.260,194.180 310.800,194.400 310.800 C 194.620 310.800,194.800 311.340,194.800 312.000 C 194.800 312.660,194.980 313.200,195.200 313.200 C 195.420 313.200,195.600 313.545,195.600 313.966 C 195.600 314.433,196.069 314.941,196.800 315.264 C 197.460 315.556,198.000 315.931,198.000 316.098 C 198.000 316.264,198.276 316.400,198.613 316.400 C 199.409 316.400,202.000 318.991,202.000 319.787 C 202.000 320.124,202.180 320.400,202.400 320.400 C 202.620 320.400,202.800 320.720,202.800 321.112 C 202.800 321.503,203.160 322.083,203.600 322.400 C 204.040 322.717,204.400 323.214,204.400 323.505 C 204.400 323.796,204.760 324.420,205.200 324.892 C 205.640 325.364,206.000 326.066,206.000 326.452 C 206.000 326.837,206.180 327.264,206.400 327.400 C 206.620 327.536,206.800 328.177,206.800 328.824 C 206.800 329.471,206.980 330.000,207.200 330.000 C 207.420 330.000,207.600 330.439,207.600 330.976 C 207.600 331.513,207.780 332.064,208.000 332.200 C 208.220 332.336,208.400 332.790,208.400 333.210 C 208.400 333.629,208.760 334.165,209.200 334.400 C 209.660 334.646,210.000 335.238,210.000 335.790 C 210.000 336.320,210.180 336.864,210.400 337.000 C 210.620 337.136,210.800 337.417,210.800 337.624 C 210.800 338.128,208.114 338.107,207.800 337.600 C 207.664 337.380,206.134 337.200,204.400 337.200 C 202.666 337.200,201.136 337.020,201.000 336.800 C 200.864 336.580,199.964 336.400,199.000 336.400 C 198.036 336.400,197.136 336.220,197.000 336.000 C 196.842 335.745,191.329 335.600,181.776 335.600 C 167.218 335.600,166.800 335.578,166.800 334.824 C 166.800 334.397,166.980 333.936,167.200 333.800 C 167.421 333.663,167.600 331.863,167.600 329.776 C 167.600 327.525,167.762 326.000,168.000 326.000 C 168.220 326.000,168.400 325.460,168.400 324.800 C 168.400 324.140,168.580 323.600,168.800 323.600 C 169.020 323.600,169.200 323.280,169.200 322.888 C 169.200 322.497,169.560 321.917,170.000 321.600 C 170.440 321.283,170.800 320.791,170.800 320.506 C 170.800 320.222,171.008 319.587,171.262 319.095 C 171.517 318.603,171.877 317.885,172.062 317.500 C 172.825 315.918,173.438 314.974,174.100 314.357 C 174.485 313.999,174.800 313.488,174.800 313.222 C 174.800 312.955,175.520 312.046,176.400 311.200 C 177.280 310.354,178.004 309.514,178.009 309.331 C 178.014 309.149,178.370 308.550,178.800 308.000 C 179.230 307.450,179.586 306.595,179.591 306.100 C 179.596 305.605,179.780 305.200,180.000 305.200 C 180.220 305.200,180.400 304.840,180.400 304.400 C 180.400 303.960,180.580 303.600,180.800 303.600 C 181.020 303.600,181.200 303.280,181.200 302.888 C 181.200 302.497,181.560 301.917,182.000 301.600 C 182.440 301.283,182.800 300.703,182.800 300.312 C 182.800 299.920,182.980 299.600,183.200 299.600 C 183.420 299.600,183.600 299.240,183.600 298.800 C 183.600 298.360,183.780 298.000,184.000 298.000 C 184.220 298.000,184.400 297.640,184.400 297.200 C 184.400 296.760,184.580 296.400,184.800 296.400 C 185.020 296.400,185.200 296.080,185.200 295.688 C 185.200 295.297,185.560 294.717,186.000 294.400 C 186.440 294.083,186.800 293.503,186.800 293.112 C 186.800 292.165,187.049 292.213,188.218 293.382 " stroke="none" fill="#050505" fill-rule="evenodd"></path><path id="path1" d="M177.800 69.642 C 168.475 70.621,162.414 72.466,153.260 77.114 C 147.853 79.859,140.602 88.429,137.343 95.928 C 136.799 97.177,136.011 98.959,135.590 99.886 C 133.109 105.349,131.538 117.532,132.453 124.200 C 134.011 135.548,134.839 137.736,141.140 147.166 C 144.869 152.748,146.562 154.529,149.600 156.069 C 150.150 156.347,151.352 157.076,152.272 157.688 C 153.192 158.299,154.104 158.800,154.300 158.800 C 154.496 158.800,155.404 159.441,156.319 160.223 C 160.706 163.978,158.396 169.844,152.647 169.546 C 151.321 169.477,150.562 169.725,149.175 170.677 C 148.199 171.347,145.933 172.632,144.139 173.532 C 138.207 176.511,127.504 183.340,125.750 185.266 C 124.497 186.641,123.721 190.749,122.614 201.851 C 121.854 209.480,121.397 212.695,120.370 217.650 C 119.920 219.822,119.654 221.764,119.779 221.966 C 119.904 222.168,119.815 222.833,119.583 223.445 C 119.350 224.057,119.086 225.737,118.996 227.179 C 118.652 232.682,117.890 237.207,116.300 243.200 C 115.157 247.505,114.634 250.448,113.992 256.200 C 113.746 258.400,113.370 260.874,113.157 261.698 C 112.902 262.681,112.907 263.452,113.170 263.944 C 113.443 264.454,113.429 265.070,113.125 265.875 C 112.586 267.301,113.514 271.800,114.347 271.800 C 114.627 271.800,115.339 270.863,115.929 269.719 C 118.270 265.170,119.716 262.627,120.996 260.805 C 121.734 259.756,122.825 257.931,123.422 256.749 C 124.019 255.567,124.836 254.180,125.238 253.667 C 125.639 253.154,126.323 251.804,126.757 250.667 C 127.192 249.530,128.457 246.545,129.568 244.034 C 132.314 237.826,134.293 229.775,133.766 226.960 C 133.638 226.278,133.815 224.771,134.160 223.611 C 134.504 222.450,134.691 221.348,134.575 221.160 C 134.459 220.972,134.548 220.136,134.773 219.302 C 134.997 218.468,135.249 216.871,135.332 215.752 C 135.881 208.332,141.658 203.964,145.647 207.953 C 147.751 210.057,147.744 210.215,145.130 219.600 C 144.815 220.731,144.899 221.371,145.568 222.929 C 146.104 224.177,146.278 225.096,146.062 225.529 C 145.878 225.898,145.798 227.730,145.884 229.600 C 146.112 234.530,146.072 239.712,145.776 243.600 C 145.399 248.558,145.577 253.547,146.178 254.907 C 146.350 255.295,146.365 256.105,146.210 256.707 C 146.056 257.308,145.888 261.950,145.837 267.022 C 145.785 272.094,145.630 276.427,145.492 276.651 C 145.353 276.875,145.045 281.546,144.807 287.029 C 144.563 292.653,144.133 297.959,143.822 299.200 C 141.668 307.768,134.489 330.093,130.754 339.834 C 129.481 343.153,128.044 347.473,127.558 349.434 C 127.073 351.395,126.377 353.450,126.011 354.000 C 122.884 358.699,124.055 367.958,128.130 370.745 C 133.606 374.491,140.467 375.686,142.448 373.240 C 143.243 372.259,146.800 361.530,146.800 360.114 C 146.800 359.553,146.994 358.352,147.232 357.446 C 147.469 356.541,147.847 355.080,148.071 354.200 C 148.295 353.320,148.640 352.287,148.839 351.905 C 149.038 351.523,149.200 351.034,149.200 350.817 C 149.200 350.601,149.650 349.440,150.200 348.237 C 150.750 347.035,151.200 345.932,151.200 345.786 C 151.200 345.640,151.457 344.954,151.772 344.260 C 152.787 342.023,154.800 335.732,154.800 334.799 C 154.800 334.301,154.967 333.242,155.172 332.446 C 155.376 331.651,155.753 329.920,156.009 328.600 C 157.329 321.794,162.767 310.565,167.466 304.946 C 168.410 303.816,169.934 301.386,170.853 299.546 C 171.771 297.706,172.743 295.930,173.012 295.600 C 173.282 295.270,174.257 293.560,175.181 291.800 C 176.104 290.040,177.239 287.987,177.702 287.238 C 178.613 285.767,178.986 284.081,179.567 278.800 C 180.317 271.981,181.875 269.367,185.439 268.944 C 189.706 268.439,191.743 270.822,194.038 279.000 C 194.531 280.760,195.251 282.920,195.636 283.800 C 196.022 284.680,196.741 286.570,197.235 288.000 C 197.729 289.430,198.390 290.903,198.703 291.272 C 199.312 291.990,200.118 293.388,201.773 296.600 C 202.340 297.700,203.330 299.500,203.974 300.600 C 204.618 301.700,205.334 303.050,205.566 303.600 C 205.798 304.150,206.257 305.050,206.587 305.600 C 206.916 306.150,207.472 307.209,207.821 307.954 C 208.170 308.699,208.803 309.824,209.228 310.454 C 209.653 311.084,210.366 312.141,210.814 312.802 C 211.261 313.464,211.986 315.166,212.425 316.586 C 212.863 318.005,213.412 319.284,213.644 319.427 C 213.876 319.571,214.393 320.450,214.792 321.382 C 215.192 322.314,216.256 324.049,217.157 325.238 C 218.059 326.427,218.797 327.601,218.798 327.846 C 218.799 328.091,219.134 328.721,219.543 329.246 C 219.952 329.771,220.534 330.920,220.837 331.800 C 221.139 332.680,221.676 333.850,222.030 334.400 C 223.644 336.911,225.149 339.612,225.409 340.466 C 225.566 340.980,225.925 341.670,226.206 342.000 C 226.685 342.563,227.191 343.479,229.186 347.400 C 229.633 348.280,230.264 349.342,230.587 349.760 C 230.911 350.177,231.473 351.437,231.838 352.560 C 232.202 353.682,232.838 354.972,233.250 355.426 C 233.663 355.880,234.000 356.438,234.000 356.665 C 234.000 356.893,234.611 358.232,235.358 359.640 C 236.104 361.048,237.206 363.820,237.807 365.800 C 240.513 374.724,245.258 377.550,251.200 373.776 C 256.589 370.353,261.352 359.075,259.834 353.332 C 258.746 349.219,250.922 337.851,247.966 336.088 C 247.105 335.575,246.400 334.917,246.400 334.626 C 246.400 334.336,246.120 333.865,245.777 333.581 C 245.434 333.296,244.886 332.509,244.559 331.832 C 244.232 331.154,243.440 329.700,242.800 328.600 C 242.160 327.500,241.338 325.970,240.975 325.200 C 240.611 324.430,240.083 323.667,239.802 323.505 C 239.520 323.343,239.168 322.727,239.020 322.137 C 238.872 321.546,238.413 320.634,238.001 320.110 C 237.588 319.586,236.856 317.970,236.373 316.520 C 235.891 315.070,234.980 312.902,234.349 311.703 C 233.718 310.504,231.933 305.586,230.383 300.774 C 228.832 295.961,227.403 291.925,227.207 291.805 C 225.723 290.887,220.976 278.800,220.373 274.400 C 219.799 270.210,218.807 253.693,218.583 244.600 C 218.050 222.910,218.320 225.638,215.998 218.556 C 213.117 209.770,213.022 208.484,215.098 206.408 C 219.224 202.282,222.365 204.475,225.226 213.479 C 231.338 232.711,234.097 245.292,234.024 253.600 C 234.010 255.241,233.652 258.392,233.442 258.733 C 233.311 258.945,233.501 260.039,233.864 261.164 C 234.428 262.910,234.449 263.439,234.010 264.769 C 232.823 268.365,234.081 269.072,238.800 267.461 C 241.762 266.451,241.576 266.791,243.196 259.400 C 243.678 257.200,244.412 254.140,244.828 252.600 C 245.243 251.060,245.660 248.900,245.754 247.800 C 245.848 246.700,246.100 244.540,246.314 243.000 C 247.802 232.275,245.906 205.739,243.231 199.869 C 242.774 198.865,242.400 197.931,242.400 197.793 C 242.400 197.655,241.427 195.530,240.239 193.071 C 239.050 190.612,237.598 187.503,237.012 186.162 C 235.349 182.357,230.574 179.115,221.204 175.430 C 217.821 174.100,216.530 173.732,204.954 170.805 C 197.846 169.008,196.727 168.498,195.854 166.657 C 194.090 162.940,196.053 160.190,201.600 158.606 C 202.150 158.449,205.068 157.348,208.085 156.160 C 211.102 154.972,213.779 154.000,214.034 154.000 C 214.795 154.000,221.214 147.519,222.034 145.923 C 222.451 145.111,223.231 143.800,223.768 143.009 C 228.536 135.983,229.536 120.272,226.226 104.397 C 225.529 101.055,221.389 92.320,218.321 87.718 C 217.265 86.133,216.397 84.693,216.393 84.518 C 216.382 84.061,210.927 79.186,208.800 77.734 C 198.787 70.896,189.341 68.431,177.800 69.642 M212.472 126.455 C 215.602 128.056,215.679 133.420,212.600 135.437 C 209.574 137.420,202.387 139.280,196.200 139.682 C 189.456 140.121,168.971 139.826,165.600 139.242 C 164.390 139.032,159.802 138.446,155.403 137.938 C 145.815 136.832,145.209 136.531,144.893 132.711 C 144.440 127.256,147.223 126.570,162.000 128.499 C 181.605 131.057,199.027 130.330,207.400 126.606 C 209.688 125.588,210.718 125.557,212.472 126.455 " stroke="none" fill="#fbfbfb" fill-rule="evenodd"></path><path id="path2" d="M182.100 69.087 C 182.705 69.178,183.695 69.178,184.300 69.087 C 184.905 68.995,184.410 68.920,183.200 68.920 C 181.990 68.920,181.495 68.995,182.100 69.087 M178.705 69.483 C 179.202 69.579,179.922 69.575,180.305 69.475 C 180.687 69.375,180.280 69.296,179.400 69.301 C 178.520 69.305,178.207 69.387,178.705 69.483 M186.305 69.483 C 186.802 69.579,187.522 69.575,187.905 69.475 C 188.287 69.375,187.880 69.296,187.000 69.301 C 186.120 69.305,185.807 69.387,186.305 69.483 M173.000 70.003 C 172.485 70.226,172.913 70.267,174.200 70.118 C 175.300 69.991,176.275 69.823,176.367 69.744 C 176.714 69.445,173.764 69.672,173.000 70.003 M190.400 69.756 C 190.400 69.842,191.017 69.985,191.772 70.073 C 192.527 70.161,193.056 70.090,192.948 69.916 C 192.755 69.603,190.400 69.455,190.400 69.756 M208.989 77.685 C 209.644 78.188,211.174 79.506,212.389 80.614 C 213.605 81.721,214.960 82.886,215.400 83.201 C 215.840 83.517,214.956 82.610,213.436 81.187 C 211.916 79.764,210.026 78.188,209.236 77.685 L 207.800 76.770 208.989 77.685 M148.778 79.900 L 147.400 81.400 148.996 80.000 C 149.873 79.230,150.668 78.555,150.762 78.500 C 150.856 78.445,150.759 78.400,150.545 78.400 C 150.332 78.400,149.537 79.075,148.778 79.900 M133.849 103.815 C 133.712 104.173,133.615 104.766,133.634 105.133 C 133.653 105.500,133.827 105.269,134.021 104.620 C 134.398 103.358,134.265 102.733,133.849 103.815 M226.662 106.600 C 226.796 107.480,226.972 108.275,227.053 108.367 C 227.356 108.710,227.129 106.568,226.781 105.800 C 226.529 105.242,226.493 105.485,226.662 106.600 M133.049 107.015 C 132.912 107.373,132.818 108.056,132.841 108.533 C 132.867 109.081,133.003 108.886,133.210 108.003 C 133.560 106.516,133.465 105.933,133.049 107.015 M227.488 111.800 C 227.611 113.120,227.776 114.275,227.856 114.367 C 228.135 114.689,227.916 111.388,227.593 110.400 C 227.389 109.779,227.349 110.309,227.488 111.800 M132.449 111.800 C 132.416 112.240,132.296 113.050,132.183 113.600 L 131.977 114.600 132.406 113.619 C 132.642 113.079,132.761 112.269,132.672 111.819 C 132.513 111.021,132.507 111.021,132.449 111.800 M228.101 117.800 C 228.105 118.680,228.187 118.993,228.283 118.495 C 228.379 117.998,228.375 117.278,228.275 116.895 C 228.175 116.513,228.096 116.920,228.101 117.800 M228.534 122.400 C 228.534 124.050,228.605 124.725,228.691 123.900 C 228.778 123.075,228.778 121.725,228.691 120.900 C 228.605 120.075,228.534 120.750,228.534 122.400 M132.493 126.000 C 132.493 126.770,132.575 127.085,132.676 126.700 C 132.776 126.315,132.776 125.685,132.676 125.300 C 132.575 124.915,132.493 125.230,132.493 126.000 M228.101 127.000 C 228.105 127.880,228.187 128.193,228.283 127.695 C 228.379 127.198,228.375 126.478,228.275 126.095 C 228.175 125.713,228.096 126.120,228.101 127.000 M146.175 128.900 L 145.000 130.200 146.200 129.139 C 146.860 128.555,147.760 127.991,148.200 127.885 C 148.979 127.698,148.979 127.692,148.175 127.646 C 147.710 127.620,146.837 128.167,146.175 128.900 M160.100 128.676 C 160.485 128.776,161.115 128.776,161.500 128.676 C 161.885 128.575,161.570 128.493,160.800 128.493 C 160.030 128.493,159.715 128.575,160.100 128.676 M132.828 129.633 C 132.844 130.165,133.019 130.960,133.219 131.400 C 133.471 131.958,133.507 131.715,133.338 130.600 C 133.055 128.743,132.787 128.236,132.828 129.633 M166.900 129.476 C 167.285 129.576,167.915 129.576,168.300 129.476 C 168.685 129.375,168.370 129.293,167.600 129.293 C 166.830 129.293,166.515 129.375,166.900 129.476 M172.500 129.891 C 173.325 129.978,174.675 129.978,175.500 129.891 C 176.325 129.805,175.650 129.734,174.000 129.734 C 172.350 129.734,171.675 129.805,172.500 129.891 M191.511 129.893 C 192.451 129.978,193.891 129.977,194.711 129.891 C 195.530 129.805,194.760 129.736,193.000 129.737 C 191.240 129.739,190.570 129.809,191.511 129.893 M181.100 130.296 C 182.475 130.374,184.725 130.374,186.100 130.296 C 187.475 130.218,186.350 130.154,183.600 130.154 C 180.850 130.154,179.725 130.218,181.100 130.296 M214.650 131.250 C 214.317 132.917,214.640 133.240,215.000 131.600 C 215.152 130.909,215.193 130.259,215.091 130.158 C 214.989 130.056,214.791 130.547,214.650 131.250 M227.664 131.867 C 227.629 132.564,227.496 133.464,227.370 133.867 C 227.153 134.559,227.165 134.560,227.594 133.891 C 227.845 133.502,227.977 132.602,227.889 131.891 L 227.728 130.600 227.664 131.867 M144.994 133.378 C 145.115 134.431,145.542 135.298,146.276 135.978 L 147.377 137.000 146.500 135.987 C 146.018 135.429,145.441 134.259,145.218 133.387 L 144.812 131.800 144.994 133.378 M212.600 135.050 C 211.881 135.662,211.734 135.905,212.233 135.657 C 212.966 135.293,214.341 133.976,213.949 134.014 C 213.867 134.022,213.260 134.488,212.600 135.050 M134.626 136.100 C 135.151 137.784,135.580 138.800,135.766 138.800 C 135.868 138.800,135.675 137.990,135.338 137.000 C 134.724 135.197,134.099 134.407,134.626 136.100 M154.705 137.883 C 155.202 137.979,155.922 137.975,156.305 137.875 C 156.687 137.775,156.280 137.696,155.400 137.701 C 154.520 137.705,154.207 137.787,154.705 137.883 M161.105 138.683 C 161.602 138.779,162.322 138.775,162.705 138.675 C 163.087 138.575,162.680 138.496,161.800 138.501 C 160.920 138.505,160.607 138.587,161.105 138.683 M168.311 139.493 C 169.251 139.578,170.691 139.577,171.511 139.491 C 172.330 139.405,171.560 139.336,169.800 139.337 C 168.040 139.339,167.370 139.409,168.311 139.493 M196.900 139.491 C 197.725 139.578,199.075 139.578,199.900 139.491 C 200.725 139.405,200.050 139.334,198.400 139.334 C 196.750 139.334,196.075 139.405,196.900 139.491 M176.112 139.895 C 177.164 139.977,178.784 139.976,179.712 139.892 C 180.640 139.808,179.780 139.741,177.800 139.742 C 175.820 139.743,175.060 139.812,176.112 139.895 M188.700 139.893 C 189.635 139.977,191.165 139.977,192.100 139.893 C 193.035 139.809,192.270 139.740,190.400 139.740 C 188.530 139.740,187.765 139.809,188.700 139.893 M218.191 150.500 L 215.000 153.800 218.300 150.609 C 220.115 148.855,221.600 147.370,221.600 147.309 C 221.600 147.018,221.154 147.435,218.191 150.500 M143.242 150.800 C 144.272 152.427,146.022 154.400,146.435 154.400 C 146.592 154.400,146.153 153.812,145.460 153.094 C 144.767 152.375,143.785 151.250,143.278 150.594 L 142.356 149.400 143.242 150.800 M212.200 154.614 C 211.200 155.096,211.166 155.151,212.000 154.948 C 213.133 154.671,214.407 154.021,213.800 154.030 C 213.580 154.033,212.860 154.296,212.200 154.614 M200.075 159.073 C 199.126 159.409,198.421 159.754,198.507 159.840 C 198.593 159.927,199.640 159.651,200.832 159.228 C 202.024 158.805,202.730 158.460,202.400 158.461 C 202.070 158.462,201.024 158.738,200.075 159.073 M156.528 160.652 C 157.148 161.339,157.901 162.689,158.201 163.651 C 158.501 164.613,158.759 165.079,158.773 164.687 C 158.818 163.487,157.764 161.453,156.552 160.401 L 155.400 159.403 156.528 160.652 M197.124 160.500 C 196.778 160.775,196.185 161.540,195.805 162.200 C 195.265 163.140,195.254 163.227,195.757 162.600 C 196.109 162.160,196.777 161.395,197.241 160.900 C 198.166 159.912,198.109 159.717,197.124 160.500 M195.256 164.800 C 195.256 165.130,195.411 165.760,195.600 166.200 C 195.817 166.704,195.944 166.778,195.944 166.400 C 195.944 166.070,195.789 165.440,195.600 165.000 C 195.383 164.496,195.256 164.422,195.256 164.800 M205.000 170.800 C 205.440 170.989,206.070 171.144,206.400 171.144 C 206.778 171.144,206.704 171.017,206.200 170.800 C 205.760 170.611,205.130 170.456,204.800 170.456 C 204.422 170.456,204.496 170.583,205.000 170.800 M211.400 172.400 C 211.840 172.589,212.470 172.744,212.800 172.744 C 213.178 172.744,213.104 172.617,212.600 172.400 C 212.160 172.211,211.530 172.056,211.200 172.056 C 210.822 172.056,210.896 172.183,211.400 172.400 M214.200 173.200 C 214.640 173.389,215.270 173.544,215.600 173.544 C 215.978 173.544,215.904 173.417,215.400 173.200 C 214.960 173.011,214.330 172.856,214.000 172.856 C 213.622 172.856,213.696 172.983,214.200 173.200 M219.200 174.535 C 219.200 174.640,220.010 175.001,221.000 175.338 C 222.809 175.954,223.583 175.873,221.900 175.244 C 220.207 174.610,219.200 174.346,219.200 174.535 M224.000 176.468 C 224.550 176.728,225.585 177.283,226.300 177.703 C 227.015 178.122,227.600 178.375,227.600 178.265 C 227.600 177.931,225.065 176.507,224.000 176.244 L 223.000 175.996 224.000 176.468 M228.800 178.868 C 229.350 179.128,230.385 179.683,231.100 180.103 C 231.815 180.522,232.400 180.775,232.400 180.665 C 232.400 180.331,229.865 178.907,228.800 178.644 L 227.800 178.396 228.800 178.868 M233.164 181.335 C 233.749 182.063,236.000 183.777,236.000 183.494 C 236.000 183.406,235.235 182.726,234.300 181.983 C 233.365 181.240,232.854 180.948,233.164 181.335 M124.249 187.415 C 124.112 187.773,124.015 188.366,124.034 188.733 C 124.053 189.100,124.227 188.869,124.421 188.220 C 124.798 186.958,124.665 186.333,124.249 187.415 M123.469 191.556 C 123.321 192.295,123.220 193.283,123.244 193.750 C 123.268 194.218,123.447 193.790,123.642 192.800 C 123.837 191.810,123.938 190.823,123.867 190.606 C 123.796 190.390,123.617 190.817,123.469 191.556 M122.509 200.400 C 122.509 201.390,122.587 201.795,122.682 201.300 C 122.778 200.805,122.778 199.995,122.682 199.500 C 122.587 199.005,122.509 199.410,122.509 200.400 M122.101 205.000 C 122.105 205.880,122.187 206.193,122.283 205.695 C 122.379 205.198,122.375 204.478,122.275 204.095 C 122.175 203.713,122.096 204.120,122.101 205.000 M215.476 206.100 C 214.754 206.815,214.621 207.019,215.181 206.554 C 215.742 206.088,216.560 205.508,217.000 205.266 C 217.440 205.023,217.572 204.819,217.294 204.812 C 217.016 204.805,216.198 205.385,215.476 206.100 M245.062 206.600 C 245.196 207.480,245.372 208.275,245.453 208.367 C 245.756 208.710,245.529 206.568,245.181 205.800 C 244.929 205.242,244.893 205.485,245.062 206.600 M139.431 207.176 C 138.788 207.600,138.088 208.274,137.877 208.673 C 137.619 209.161,137.791 209.090,138.401 208.457 C 138.901 207.939,139.871 207.271,140.555 206.973 C 141.240 206.675,141.530 206.425,141.200 206.418 C 140.870 206.411,140.074 206.752,139.431 207.176 M144.304 207.198 C 145.021 207.635,145.965 208.579,146.402 209.296 C 146.839 210.013,147.198 210.354,147.199 210.053 C 147.200 209.342,144.258 206.400,143.547 206.401 C 143.246 206.402,143.587 206.761,144.304 207.198 M121.693 208.000 C 121.693 208.770,121.775 209.085,121.876 208.700 C 121.976 208.315,121.976 207.685,121.876 207.300 C 121.775 206.915,121.693 207.230,121.693 208.000 M213.680 210.200 C 213.680 210.640,213.824 211.450,214.000 212.000 C 214.254 212.792,214.320 212.833,214.320 212.200 C 214.320 211.760,214.176 210.950,214.000 210.400 C 213.746 209.608,213.680 209.567,213.680 210.200 M245.881 212.000 C 246.006 213.210,246.174 214.275,246.254 214.367 C 246.535 214.687,246.317 211.791,245.987 210.800 C 245.771 210.154,245.734 210.580,245.881 212.000 M225.656 215.600 C 225.656 215.930,225.811 216.560,226.000 217.000 C 226.217 217.504,226.344 217.578,226.344 217.200 C 226.344 216.870,226.189 216.240,226.000 215.800 C 225.783 215.296,225.656 215.222,225.656 215.600 M120.200 216.800 C 120.048 217.491,120.007 218.141,120.109 218.242 C 120.211 218.344,120.409 217.853,120.550 217.150 C 120.883 215.483,120.560 215.160,120.200 216.800 M246.493 217.200 C 246.493 217.970,246.575 218.285,246.676 217.900 C 246.776 217.515,246.776 216.885,246.676 216.500 C 246.575 216.115,246.493 216.430,246.493 217.200 M226.462 218.400 C 226.462 218.730,226.794 219.900,227.200 221.000 C 227.606 222.100,227.938 222.730,227.938 222.400 C 227.938 222.070,227.606 220.900,227.200 219.800 C 226.794 218.700,226.462 218.070,226.462 218.400 M134.650 219.650 C 134.317 221.317,134.640 221.640,135.000 220.000 C 135.152 219.309,135.193 218.659,135.091 218.558 C 134.989 218.456,134.791 218.947,134.650 219.650 M246.768 220.100 C 246.649 220.960,246.710 221.450,246.912 221.248 C 247.105 221.055,247.198 220.381,247.119 219.749 C 246.987 218.691,246.959 218.719,246.768 220.100 M119.403 220.385 C 119.260 221.036,119.291 221.833,119.472 222.156 C 119.685 222.536,119.813 222.120,119.838 220.971 C 119.883 218.902,119.764 218.741,119.403 220.385 M144.828 221.713 C 144.813 221.885,145.068 222.666,145.395 223.449 C 145.813 224.451,145.873 225.091,145.595 225.610 C 145.378 226.016,145.207 226.494,145.216 226.674 C 145.225 226.853,145.493 226.519,145.813 225.931 C 146.334 224.971,146.314 224.683,145.625 223.131 C 145.202 222.179,144.844 221.541,144.828 221.713 M228.056 223.600 C 228.056 223.930,228.211 224.560,228.400 225.000 C 228.617 225.504,228.744 225.578,228.744 225.200 C 228.744 224.870,228.589 224.240,228.400 223.800 C 228.183 223.296,228.056 223.222,228.056 223.600 M218.109 226.000 C 218.109 226.990,218.187 227.395,218.282 226.900 C 218.378 226.405,218.378 225.595,218.282 225.100 C 218.187 224.605,218.109 225.010,218.109 226.000 M133.693 226.000 C 133.693 226.770,133.775 227.085,133.876 226.700 C 133.976 226.315,133.976 225.685,133.876 225.300 C 133.775 224.915,133.693 225.230,133.693 226.000 M118.580 226.567 C 118.439 227.319,118.476 228.206,118.662 228.537 C 118.884 228.934,119.010 228.466,119.029 227.170 C 119.064 224.855,118.934 224.681,118.580 226.567 M246.509 226.800 C 246.509 227.790,246.587 228.195,246.682 227.700 C 246.778 227.205,246.778 226.395,246.682 225.900 C 246.587 225.405,246.509 225.810,246.509 226.800 M228.856 226.400 C 228.856 226.730,229.011 227.360,229.200 227.800 C 229.417 228.304,229.544 228.378,229.544 228.000 C 229.544 227.670,229.389 227.040,229.200 226.600 C 228.983 226.096,228.856 226.022,228.856 226.400 M145.693 228.400 C 145.693 229.170,145.775 229.485,145.876 229.100 C 145.976 228.715,145.976 228.085,145.876 227.700 C 145.775 227.315,145.693 227.630,145.693 228.400 M246.702 230.596 C 246.590 231.583,246.625 232.978,246.778 233.696 C 246.978 234.634,247.068 234.130,247.099 231.900 C 247.148 228.410,247.002 227.931,246.702 230.596 M145.709 235.674 C 145.724 238.163,145.613 240.740,145.462 241.400 C 145.227 242.427,145.265 242.399,145.722 241.200 C 146.231 239.867,146.360 231.827,145.880 231.347 C 145.771 231.237,145.693 233.184,145.709 235.674 M133.254 232.400 C 133.219 232.950,133.096 233.850,132.983 234.400 L 132.777 235.400 133.207 234.415 C 133.443 233.874,133.565 232.974,133.478 232.415 L 133.320 231.400 133.254 232.400 M231.280 235.400 C 231.280 235.840,231.424 236.650,231.600 237.200 C 231.854 237.992,231.920 238.033,231.920 237.400 C 231.920 236.960,231.776 236.150,231.600 235.600 C 231.346 234.808,231.280 234.767,231.280 235.400 M246.509 236.800 C 246.509 237.790,246.587 238.195,246.682 237.700 C 246.778 237.205,246.778 236.395,246.682 235.900 C 246.587 235.405,246.509 235.810,246.509 236.800 M132.200 236.800 C 132.048 237.491,132.007 238.141,132.109 238.242 C 132.211 238.344,132.409 237.853,132.550 237.150 C 132.883 235.483,132.560 235.160,132.200 236.800 M218.554 242.400 C 218.554 245.150,218.618 246.275,218.696 244.900 C 218.774 243.525,218.774 241.275,218.696 239.900 C 218.618 238.525,218.554 239.650,218.554 242.400 M117.029 239.029 C 116.881 239.615,116.838 240.172,116.932 240.266 C 117.027 240.360,117.224 239.958,117.371 239.371 C 117.519 238.785,117.562 238.228,117.468 238.134 C 117.373 238.040,117.176 238.442,117.029 239.029 M232.087 239.600 C 232.083 240.150,232.224 241.050,232.400 241.600 C 232.831 242.944,232.831 241.492,232.400 239.800 C 232.126 238.722,232.094 238.702,232.087 239.600 M246.633 240.833 C 246.483 241.966,246.441 242.974,246.539 243.072 C 246.637 243.171,246.845 242.328,247.000 241.200 C 247.155 240.072,247.198 239.064,247.094 238.961 C 246.991 238.858,246.784 239.700,246.633 240.833 M115.429 245.029 C 115.281 245.615,115.238 246.172,115.332 246.266 C 115.427 246.360,115.624 245.958,115.771 245.371 C 115.919 244.785,115.962 244.228,115.868 244.134 C 115.773 244.040,115.576 244.442,115.429 245.029 M145.049 246.900 C 144.917 247.615,144.955 248.740,145.135 249.400 C 145.398 250.364,145.463 250.109,145.464 248.100 C 145.467 245.266,145.391 245.048,145.049 246.900 M114.656 248.484 C 114.521 248.988,114.427 249.760,114.446 250.200 C 114.465 250.640,114.645 250.298,114.846 249.440 C 115.236 247.778,115.070 246.940,114.656 248.484 M218.950 251.800 C 218.951 254.220,219.016 255.158,219.096 253.885 C 219.176 252.612,219.175 250.632,219.094 249.485 C 219.014 248.338,218.949 249.380,218.950 251.800 M245.246 250.867 C 245.221 251.234,245.096 251.864,244.970 252.267 C 244.752 252.962,244.763 252.963,245.197 252.287 C 245.448 251.896,245.573 251.266,245.473 250.887 C 245.311 250.268,245.288 250.266,245.246 250.867 M233.432 252.200 C 233.588 252.640,233.716 253.270,233.716 253.600 C 233.716 253.930,233.588 254.560,233.432 255.000 C 233.277 255.440,233.436 255.305,233.787 254.700 C 234.372 253.693,234.372 253.507,233.787 252.500 C 233.436 251.895,233.277 251.760,233.432 252.200 M113.800 254.800 C 113.645 255.928,113.602 256.936,113.706 257.039 C 113.809 257.142,114.016 256.300,114.167 255.167 C 114.317 254.034,114.359 253.026,114.261 252.928 C 114.163 252.829,113.955 253.672,113.800 254.800 M145.665 257.417 C 145.409 257.978,145.207 258.654,145.216 258.919 C 145.224 259.183,145.497 258.788,145.822 258.039 C 146.505 256.465,146.361 255.890,145.665 257.417 M243.422 258.222 C 243.272 259.025,243.228 259.762,243.326 259.860 C 243.424 259.957,243.627 259.381,243.778 258.578 C 243.928 257.775,243.972 257.038,243.874 256.940 C 243.776 256.843,243.573 257.419,243.422 258.222 M219.309 260.000 C 219.309 260.990,219.387 261.395,219.482 260.900 C 219.578 260.405,219.578 259.595,219.482 259.100 C 219.387 258.605,219.309 259.010,219.309 260.000 M242.656 261.284 C 242.521 261.788,242.427 262.560,242.446 263.000 C 242.465 263.440,242.645 263.098,242.846 262.240 C 243.236 260.578,243.070 259.740,242.656 261.284 M219.728 264.400 C 219.728 265.830,219.801 266.415,219.889 265.700 C 219.978 264.985,219.978 263.815,219.889 263.100 C 219.801 262.385,219.728 262.970,219.728 264.400 M112.639 263.400 C 112.799 263.840,112.917 264.643,112.902 265.184 C 112.879 266.009,112.936 266.058,113.253 265.491 C 113.517 265.020,113.436 264.475,112.991 263.707 C 112.638 263.098,112.480 262.960,112.639 263.400 M233.700 268.000 C 233.897 268.732,235.717 269.002,236.690 268.443 C 237.224 268.136,237.018 268.095,235.860 268.276 C 234.773 268.447,234.205 268.353,233.930 267.959 C 233.604 267.493,233.566 267.500,233.700 268.000 M182.275 270.322 C 181.684 270.939,181.200 271.593,181.200 271.776 C 181.200 271.958,181.585 271.619,182.055 271.021 C 182.526 270.423,183.291 269.780,183.755 269.592 C 184.319 269.364,184.392 269.242,183.975 269.225 C 183.631 269.211,182.866 269.705,182.275 270.322 M190.657 271.391 C 191.213 272.386,191.747 273.200,191.842 273.200 C 192.123 273.200,190.448 270.077,190.029 269.818 C 189.818 269.688,190.101 270.395,190.657 271.391 M220.124 272.200 C 220.126 273.520,220.201 274.012,220.290 273.293 C 220.379 272.574,220.377 271.494,220.286 270.893 C 220.195 270.292,220.122 270.880,220.124 272.200 M145.693 272.800 C 145.693 273.570,145.775 273.885,145.876 273.500 C 145.976 273.115,145.976 272.485,145.876 272.100 C 145.775 271.715,145.693 272.030,145.693 272.800 M145.053 276.436 C 144.914 277.131,144.826 278.713,144.857 279.950 C 144.908 281.910,144.954 281.762,145.215 278.800 C 145.531 275.207,145.472 274.341,145.053 276.436 M179.659 279.400 C 179.620 280.060,179.496 281.050,179.383 281.600 L 179.177 282.600 179.608 281.614 C 179.844 281.072,179.968 280.082,179.883 279.414 L 179.728 278.200 179.659 279.400 M178.893 284.000 C 178.893 284.770,178.975 285.085,179.076 284.700 C 179.176 284.315,179.176 283.685,179.076 283.300 C 178.975 282.915,178.893 283.230,178.893 284.000 M144.540 289.200 C 144.540 291.070,144.609 291.835,144.693 290.900 C 144.777 289.965,144.777 288.435,144.693 287.500 C 144.609 286.565,144.540 287.330,144.540 289.200 M177.284 287.899 C 176.088 289.732,176.334 289.965,177.567 288.167 C 178.088 287.405,178.444 286.718,178.358 286.639 C 178.271 286.561,177.788 287.128,177.284 287.899 M174.615 292.770 C 173.848 294.294,173.035 295.654,172.810 295.794 C 172.584 295.933,172.400 296.241,172.400 296.478 C 172.400 296.714,172.736 296.479,173.147 295.954 C 174.014 294.846,176.508 290.000,176.211 290.000 C 176.100 290.000,175.382 291.247,174.615 292.770 M198.500 291.431 C 198.885 291.889,199.203 292.429,199.207 292.631 C 199.217 293.130,201.600 296.622,201.600 296.138 C 201.600 295.928,201.150 295.145,200.600 294.400 C 200.050 293.655,199.600 292.837,199.600 292.584 C 199.600 292.331,199.195 291.781,198.700 291.362 C 197.801 290.601,197.801 290.601,198.500 291.431 M144.128 295.200 C 144.128 296.630,144.201 297.215,144.289 296.500 C 144.378 295.785,144.378 294.615,144.289 293.900 C 144.201 293.185,144.128 293.770,144.128 295.200 M201.600 297.090 C 201.600 297.311,201.960 297.950,202.400 298.509 C 202.840 299.069,203.200 299.688,203.200 299.887 C 203.200 300.085,203.473 300.596,203.807 301.024 C 204.362 301.735,204.371 301.700,203.910 300.600 C 203.284 299.105,201.600 296.547,201.600 297.090 M170.465 300.217 C 169.795 301.688,169.923 302.002,170.647 300.665 C 170.986 300.040,171.188 299.454,171.096 299.363 C 171.005 299.271,170.721 299.656,170.465 300.217 M166.626 305.900 C 165.762 307.005,165.693 307.190,166.363 306.604 C 167.165 305.904,168.223 304.400,167.914 304.400 C 167.851 304.400,167.272 305.075,166.626 305.900 M206.000 305.305 C 206.000 305.447,206.450 306.228,207.000 307.038 C 207.550 307.849,208.000 308.341,208.000 308.134 C 208.000 307.926,207.550 307.145,207.000 306.400 C 206.450 305.655,206.000 305.162,206.000 305.305 M209.400 311.200 C 209.741 311.860,210.111 312.400,210.221 312.400 C 210.331 312.400,210.141 311.860,209.800 311.200 C 209.459 310.540,209.089 310.000,208.979 310.000 C 208.869 310.000,209.059 310.540,209.400 311.200 M211.124 313.800 C 211.326 314.240,211.592 314.870,211.714 315.200 C 211.907 315.718,211.941 315.715,211.968 315.176 C 211.986 314.834,211.720 314.204,211.378 313.776 C 210.766 313.012,210.762 313.013,211.124 313.800 M160.181 316.837 C 159.829 317.518,159.612 318.145,159.699 318.232 C 159.786 318.319,160.156 317.762,160.522 316.995 C 161.344 315.270,161.059 315.138,160.181 316.837 M240.800 325.089 C 240.800 325.321,241.171 325.936,241.624 326.456 L 242.447 327.400 241.745 326.200 C 240.820 324.621,240.800 324.597,240.800 325.089 M156.460 326.467 C 156.427 327.054,156.296 327.864,156.170 328.267 C 155.952 328.960,155.965 328.961,156.395 328.290 C 156.646 327.899,156.777 327.089,156.686 326.490 L 156.520 325.400 156.460 326.467 M155.693 330.400 C 155.693 331.170,155.775 331.485,155.876 331.100 C 155.976 330.715,155.976 330.085,155.876 329.700 C 155.775 329.315,155.693 329.630,155.693 330.400 M154.901 334.600 C 154.905 335.480,154.987 335.793,155.083 335.295 C 155.179 334.798,155.175 334.078,155.075 333.695 C 154.975 333.313,154.896 333.720,154.901 334.600 M246.462 334.786 C 246.545 335.036,247.241 335.609,248.007 336.059 C 248.773 336.509,249.040 336.586,248.600 336.231 C 248.160 335.875,247.465 335.303,247.055 334.958 C 246.646 334.613,246.379 334.536,246.462 334.786 M250.226 337.834 C 251.094 339.218,253.462 342.135,252.958 341.200 C 252.610 340.554,250.060 337.130,249.682 336.800 C 249.555 336.690,249.800 337.155,250.226 337.834 M224.509 339.362 C 224.990 340.346,225.447 341.086,225.526 341.008 C 225.722 340.812,224.382 338.036,223.969 337.781 C 223.785 337.667,224.029 338.379,224.509 339.362 M253.994 343.003 C 255.587 344.921,255.721 345.045,255.286 344.196 C 255.059 343.753,254.452 343.034,253.937 342.598 C 253.033 341.834,253.035 341.848,253.994 343.003 M151.579 344.655 C 151.358 345.236,151.252 345.785,151.343 345.876 C 151.433 345.967,151.699 345.492,151.933 344.820 C 152.453 343.328,152.139 343.182,151.579 344.655 M257.960 349.000 C 258.634 350.305,259.188 351.028,259.185 350.600 C 259.183 350.380,258.814 349.750,258.364 349.200 C 257.821 348.536,257.685 348.469,257.960 349.000 M147.849 354.615 C 147.712 354.973,147.615 355.566,147.634 355.933 C 147.653 356.300,147.827 356.069,148.021 355.420 C 148.398 354.158,148.265 353.533,147.849 354.615 M232.823 355.358 C 233.141 355.775,233.623 356.585,233.896 357.158 L 234.392 358.200 234.154 357.200 C 234.023 356.650,233.541 355.840,233.082 355.400 C 232.357 354.706,232.323 354.701,232.823 355.358 M258.846 362.467 C 258.821 362.834,258.696 363.464,258.570 363.867 C 258.352 364.562,258.363 364.563,258.797 363.887 C 259.048 363.496,259.173 362.866,259.073 362.487 C 258.911 361.868,258.888 361.866,258.846 362.467 M146.046 363.267 C 146.021 363.634,145.896 364.264,145.770 364.667 C 145.552 365.362,145.563 365.363,145.997 364.687 C 146.248 364.296,146.373 363.666,146.273 363.287 C 146.111 362.668,146.088 362.666,146.046 363.267 M257.494 366.103 L 256.788 367.400 257.594 366.456 C 258.280 365.652,258.646 364.794,258.300 364.803 C 258.245 364.804,257.882 365.389,257.494 366.103 M239.201 370.699 C 239.200 371.320,241.945 374.400,242.500 374.400 C 242.725 374.400,242.413 374.011,241.809 373.535 C 241.204 373.060,240.371 372.115,239.956 371.435 C 239.542 370.756,239.202 370.424,239.201 370.699 M253.182 372.109 C 252.182 373.039,251.012 374.028,250.582 374.306 C 250.152 374.584,250.340 374.554,251.000 374.239 C 252.025 373.749,255.701 370.383,255.181 370.409 C 255.082 370.414,254.182 371.179,253.182 372.109 M142.114 373.480 C 141.627 373.986,141.374 374.400,141.552 374.400 C 141.942 374.400,143.398 372.845,143.164 372.677 C 143.074 372.613,142.601 372.974,142.114 373.480 M134.000 373.982 C 134.330 374.205,134.945 374.391,135.367 374.394 C 136.390 374.402,136.071 374.173,134.600 373.844 C 133.724 373.648,133.562 373.685,134.000 373.982 M136.433 374.544 C 136.525 374.623,137.140 374.808,137.800 374.956 C 138.676 375.152,138.838 375.115,138.400 374.818 C 137.860 374.453,136.032 374.198,136.433 374.544 " stroke="none" fill="#a2a2a2" fill-rule="evenodd"></path><path id="path3" d="M175.800 69.200 C 173.473 69.617,175.940 69.633,178.600 69.218 C 180.499 68.923,180.519 68.907,179.000 68.910 C 178.120 68.912,176.680 69.042,175.800 69.200 M187.800 69.218 C 190.547 69.646,192.831 69.612,190.400 69.180 C 189.410 69.003,187.970 68.870,187.200 68.883 C 186.055 68.903,186.165 68.964,187.800 69.218 M171.200 70.000 C 170.408 70.254,170.367 70.320,171.000 70.320 C 171.440 70.320,172.250 70.176,172.800 70.000 C 173.592 69.746,173.633 69.680,173.000 69.680 C 172.560 69.680,171.750 69.824,171.200 70.000 M167.200 70.800 C 166.408 71.054,166.367 71.120,167.000 71.120 C 167.440 71.120,168.250 70.976,168.800 70.800 C 169.592 70.546,169.633 70.480,169.000 70.480 C 168.560 70.480,167.750 70.624,167.200 70.800 M209.643 77.700 C 209.740 77.755,210.985 78.880,212.410 80.200 L 215.000 82.600 212.613 80.100 C 211.299 78.725,210.054 77.600,209.846 77.600 C 209.637 77.600,209.546 77.645,209.643 77.700 M148.575 79.700 L 147.400 81.000 148.700 79.825 C 149.912 78.730,150.184 78.400,149.875 78.400 C 149.806 78.400,149.221 78.985,148.575 79.700 M133.829 102.629 C 133.681 103.215,133.638 103.772,133.732 103.866 C 133.827 103.960,134.024 103.558,134.171 102.971 C 134.319 102.385,134.362 101.828,134.268 101.734 C 134.173 101.640,133.976 102.042,133.829 102.629 M226.468 103.800 C 226.462 104.240,226.611 104.960,226.800 105.400 C 227.238 106.419,227.238 105.368,226.800 104.000 C 226.543 103.196,226.477 103.157,226.468 103.800 M133.029 105.829 C 132.881 106.415,132.838 106.972,132.932 107.066 C 133.027 107.160,133.224 106.758,133.371 106.171 C 133.519 105.585,133.562 105.028,133.468 104.934 C 133.373 104.840,133.176 105.242,133.029 105.829 M132.215 110.215 C 132.061 111.454,132.017 112.550,132.119 112.652 C 132.220 112.754,132.430 111.823,132.585 110.585 C 132.739 109.346,132.783 108.250,132.681 108.148 C 132.580 108.046,132.370 108.977,132.215 110.215 M228.091 113.400 C 228.080 114.280,228.210 115.900,228.382 117.000 C 228.631 118.603,228.696 118.722,228.707 117.600 C 228.715 116.830,228.584 115.210,228.417 114.000 C 228.152 112.084,228.110 112.007,228.091 113.400 M131.449 114.321 C 131.204 114.718,131.429 122.363,131.694 122.627 C 131.799 122.732,131.866 120.834,131.842 118.410 C 131.819 115.985,131.766 114.001,131.724 114.001 C 131.682 114.000,131.558 114.145,131.449 114.321 M132.047 126.433 C 132.073 127.185,132.241 128.340,132.420 129.000 C 132.635 129.789,132.670 129.378,132.523 127.800 C 132.277 125.155,131.973 124.281,132.047 126.433 M228.222 129.222 C 228.066 131.010,228.023 132.556,228.126 132.659 C 228.229 132.762,228.442 131.385,228.600 129.600 C 228.758 127.815,228.801 126.268,228.697 126.163 C 228.592 126.058,228.378 127.435,228.222 129.222 M157.300 128.676 C 157.685 128.776,158.315 128.776,158.700 128.676 C 159.085 128.575,158.770 128.493,158.000 128.493 C 157.230 128.493,156.915 128.575,157.300 128.676 M168.705 129.883 C 169.202 129.979,169.922 129.975,170.305 129.875 C 170.687 129.775,170.280 129.696,169.400 129.701 C 168.520 129.705,168.207 129.787,168.705 129.883 M172.691 130.289 C 173.401 130.377,174.661 130.379,175.491 130.292 C 176.321 130.205,175.740 130.133,174.200 130.131 C 172.660 130.129,171.981 130.200,172.691 130.289 M191.091 130.289 C 191.801 130.377,193.061 130.379,193.891 130.292 C 194.721 130.205,194.140 130.133,192.600 130.131 C 191.060 130.129,190.381 130.200,191.091 130.289 M145.293 132.400 C 145.293 133.170,145.375 133.485,145.476 133.100 C 145.576 132.715,145.576 132.085,145.476 131.700 C 145.375 131.315,145.293 131.630,145.293 132.400 M150.833 136.949 C 150.925 137.031,151.900 137.201,153.000 137.328 C 154.349 137.484,154.674 137.449,154.000 137.220 C 153.001 136.880,150.518 136.668,150.833 136.949 M158.600 138.000 C 160.292 138.431,161.744 138.431,160.400 138.000 C 159.850 137.824,158.950 137.683,158.400 137.687 C 157.502 137.694,157.522 137.726,158.600 138.000 M176.100 139.491 C 176.925 139.578,178.275 139.578,179.100 139.491 C 179.925 139.405,179.250 139.334,177.600 139.334 C 175.950 139.334,175.275 139.405,176.100 139.491 M189.300 139.491 C 190.125 139.578,191.475 139.578,192.300 139.491 C 193.125 139.405,192.450 139.334,190.800 139.334 C 189.150 139.334,188.475 139.405,189.300 139.491 M183.505 139.883 C 184.002 139.979,184.722 139.975,185.105 139.875 C 185.487 139.775,185.080 139.696,184.200 139.701 C 183.320 139.705,183.007 139.787,183.505 139.883 M218.374 150.500 C 216.270 152.645,214.654 154.400,214.782 154.400 C 215.125 154.400,222.591 146.846,222.379 146.713 C 222.281 146.651,220.478 148.355,218.374 150.500 M143.200 151.455 C 143.200 151.668,143.875 152.463,144.700 153.222 L 146.200 154.600 144.800 153.004 C 144.030 152.127,143.355 151.332,143.300 151.238 C 143.245 151.144,143.200 151.241,143.200 151.455 M195.941 162.712 C 195.534 163.429,195.428 164.141,195.629 164.800 C 195.911 165.723,195.931 165.703,195.885 164.540 C 195.858 163.847,196.078 162.987,196.375 162.630 C 196.671 162.273,196.834 161.901,196.736 161.803 C 196.638 161.705,196.280 162.114,195.941 162.712 M152.105 169.087 C 152.714 169.179,153.614 169.177,154.105 169.082 C 154.597 168.987,154.100 168.911,153.000 168.914 C 151.900 168.917,151.497 168.995,152.105 169.087 M203.200 170.000 C 204.568 170.438,205.619 170.438,204.600 170.000 C 204.160 169.811,203.440 169.662,203.000 169.668 C 202.357 169.677,202.396 169.743,203.200 170.000 M209.600 171.600 C 210.968 172.038,212.019 172.038,211.000 171.600 C 210.560 171.411,209.840 171.262,209.400 171.268 C 208.757 171.277,208.796 171.343,209.600 171.600 M224.433 176.121 C 224.525 176.188,225.140 176.558,225.800 176.945 L 227.000 177.647 226.056 176.824 C 225.536 176.371,224.921 176.000,224.689 176.000 C 224.457 176.000,224.342 176.054,224.433 176.121 M229.233 178.521 C 229.325 178.588,229.940 178.958,230.600 179.345 L 231.800 180.047 230.856 179.224 C 230.336 178.771,229.721 178.400,229.489 178.400 C 229.257 178.400,229.142 178.454,229.233 178.521 M232.035 180.100 C 232.128 180.155,232.833 180.740,233.602 181.400 L 235.000 182.600 233.825 181.300 C 233.179 180.585,232.474 180.000,232.258 180.000 C 232.043 180.000,231.943 180.045,232.035 180.100 M123.400 189.600 C 123.246 190.510,123.204 191.338,123.307 191.440 C 123.410 191.543,123.613 190.877,123.760 189.960 C 123.907 189.043,123.948 188.215,123.853 188.120 C 123.758 188.024,123.554 188.690,123.400 189.600 M122.629 195.229 C 122.476 196.579,122.433 197.766,122.533 197.867 C 122.634 197.967,122.844 196.947,123.000 195.600 C 123.156 194.253,123.199 193.066,123.095 192.962 C 122.991 192.858,122.781 193.878,122.629 195.229 M121.800 202.800 C 121.643 204.366,121.600 205.733,121.704 205.837 C 121.808 205.942,122.020 204.744,122.175 203.175 C 122.330 201.606,122.373 200.239,122.271 200.138 C 122.169 200.036,121.957 201.234,121.800 202.800 M244.880 203.800 C 244.880 204.240,245.024 205.050,245.200 205.600 C 245.454 206.392,245.520 206.433,245.520 205.800 C 245.520 205.360,245.376 204.550,245.200 204.000 C 244.946 203.208,244.880 203.167,244.880 203.800 M217.323 205.115 C 217.061 205.282,217.543 205.418,218.400 205.418 C 219.257 205.418,219.739 205.282,219.477 205.115 C 219.214 204.949,218.730 204.812,218.400 204.812 C 218.070 204.812,217.586 204.949,217.323 205.115 M141.289 206.737 C 140.974 206.936,141.304 207.049,142.149 207.030 C 142.903 207.014,143.438 206.865,143.337 206.700 C 143.095 206.306,141.935 206.327,141.289 206.737 M245.695 208.000 C 245.695 208.550,245.832 209.540,246.000 210.200 C 246.272 211.270,246.305 211.292,246.305 210.400 C 246.305 209.850,246.168 208.860,246.000 208.200 C 245.728 207.130,245.695 207.108,245.695 208.000 M121.000 210.000 C 120.845 211.128,120.802 212.136,120.906 212.239 C 121.009 212.342,121.216 211.500,121.367 210.367 C 121.517 209.234,121.559 208.226,121.461 208.128 C 121.363 208.029,121.155 208.872,121.000 210.000 M213.895 208.300 C 213.811 208.465,213.874 209.140,214.034 209.800 C 214.311 210.944,214.323 210.930,214.281 209.500 C 214.236 207.976,214.167 207.763,213.895 208.300 M146.582 211.200 C 146.582 212.548,146.651 212.704,146.952 212.030 C 147.179 211.521,147.179 210.879,146.952 210.370 C 146.651 209.696,146.582 209.852,146.582 211.200 M214.468 212.200 C 214.462 212.640,214.611 213.360,214.800 213.800 C 215.238 214.819,215.238 213.768,214.800 212.400 C 214.543 211.596,214.477 211.557,214.468 212.200 M246.501 213.800 C 246.505 214.680,246.587 214.993,246.683 214.495 C 246.779 213.998,246.775 213.278,246.675 212.895 C 246.575 212.513,246.496 212.920,246.501 213.800 M120.222 215.022 C 120.072 215.825,120.028 216.562,120.126 216.660 C 120.224 216.757,120.427 216.181,120.578 215.378 C 120.728 214.575,120.772 213.838,120.674 213.740 C 120.576 213.643,120.373 214.219,120.222 215.022 M246.893 216.800 C 246.893 217.570,246.975 217.885,247.076 217.500 C 247.176 217.115,247.176 216.485,247.076 216.100 C 246.975 215.715,246.893 216.030,246.893 216.800 M145.022 217.422 C 144.872 218.225,144.828 218.962,144.926 219.060 C 145.024 219.157,145.227 218.581,145.378 217.778 C 145.528 216.975,145.572 216.238,145.474 216.140 C 145.376 216.043,145.173 216.619,145.022 217.422 M225.606 217.033 C 225.609 217.455,225.795 218.070,226.018 218.400 C 226.315 218.838,226.352 218.676,226.156 217.800 C 225.827 216.329,225.598 216.010,225.606 217.033 M135.429 217.829 C 135.281 218.415,135.238 218.972,135.332 219.066 C 135.427 219.160,135.624 218.758,135.771 218.171 C 135.919 217.585,135.962 217.028,135.868 216.934 C 135.773 216.840,135.576 217.242,135.429 217.829 M119.429 218.629 C 119.281 219.215,119.238 219.772,119.332 219.866 C 119.427 219.960,119.624 219.558,119.771 218.971 C 119.919 218.385,119.962 217.828,119.868 217.734 C 119.773 217.640,119.576 218.042,119.429 218.629 M144.267 219.867 C 143.905 220.228,143.928 221.508,144.300 221.738 C 144.465 221.840,144.600 221.401,144.600 220.762 C 144.600 220.123,144.585 219.600,144.567 219.600 C 144.548 219.600,144.413 219.720,144.267 219.867 M246.682 224.800 C 246.804 226.450,246.971 227.875,247.052 227.967 C 247.328 228.277,247.107 224.208,246.783 223.000 C 246.586 222.268,246.547 222.969,246.682 224.800 M118.622 224.622 C 118.472 225.425,118.428 226.162,118.526 226.260 C 118.624 226.357,118.827 225.781,118.978 224.978 C 119.128 224.175,119.172 223.438,119.074 223.340 C 118.976 223.243,118.773 223.819,118.622 224.622 M228.006 225.033 C 228.009 225.455,228.195 226.070,228.418 226.400 C 228.715 226.838,228.752 226.676,228.556 225.800 C 228.227 224.329,227.998 224.010,228.006 225.033 M145.301 225.300 C 144.793 225.940,144.998 232.284,145.570 233.600 C 145.957 234.492,145.976 234.449,145.741 233.200 C 145.310 230.901,145.288 225.837,145.708 225.300 C 145.922 225.025,146.008 224.800,145.898 224.800 C 145.788 224.800,145.519 225.025,145.301 225.300 M218.501 226.600 C 218.505 227.480,218.587 227.793,218.683 227.295 C 218.779 226.798,218.775 226.078,218.675 225.695 C 218.575 225.313,218.496 225.720,218.501 226.600 M133.840 230.840 C 133.693 231.757,133.652 232.585,133.747 232.680 C 133.842 232.776,134.046 232.110,134.200 231.200 C 134.354 230.290,134.396 229.462,134.293 229.360 C 134.190 229.257,133.987 229.923,133.840 230.840 M218.710 236.800 C 218.820 241.090,218.975 244.675,219.055 244.767 C 219.309 245.059,219.132 235.929,218.815 232.400 C 218.624 230.267,218.584 231.907,218.710 236.800 M117.815 231.815 C 117.661 233.054,117.617 234.150,117.719 234.252 C 117.820 234.354,118.030 233.423,118.185 232.185 C 118.339 230.946,118.383 229.850,118.281 229.748 C 118.180 229.646,117.970 230.577,117.815 231.815 M247.050 231.250 C 246.909 231.953,246.869 232.602,246.959 232.692 C 247.050 232.783,247.248 232.291,247.400 231.600 C 247.552 230.909,247.593 230.259,247.491 230.158 C 247.389 230.056,247.191 230.547,247.050 231.250 M230.468 233.400 C 230.462 233.840,230.611 234.560,230.800 235.000 C 231.238 236.019,231.238 234.968,230.800 233.600 C 230.543 232.796,230.477 232.757,230.468 233.400 M246.901 236.600 C 246.905 237.480,246.987 237.793,247.083 237.295 C 247.179 236.798,247.175 236.078,247.075 235.695 C 246.975 235.313,246.896 235.720,246.901 236.600 M117.050 237.250 C 116.717 238.917,117.040 239.240,117.400 237.600 C 117.552 236.909,117.593 236.259,117.491 236.158 C 117.389 236.056,117.191 236.547,117.050 237.250 M231.268 237.400 C 231.262 237.840,231.411 238.560,231.600 239.000 C 232.038 240.019,232.038 238.968,231.600 237.600 C 231.343 236.796,231.277 236.757,231.268 237.400 M145.256 238.000 C 145.256 238.330,145.411 238.960,145.600 239.400 C 145.817 239.904,145.944 239.978,145.944 239.600 C 145.944 239.270,145.789 238.640,145.600 238.200 C 145.383 237.696,145.256 237.622,145.256 238.000 M116.229 240.629 C 116.081 241.215,116.038 241.772,116.132 241.866 C 116.227 241.960,116.424 241.558,116.571 240.971 C 116.719 240.385,116.762 239.828,116.668 239.734 C 116.573 239.640,116.376 240.042,116.229 240.629 M145.003 241.192 C 144.864 241.627,144.906 242.261,145.096 242.599 C 145.339 243.035,145.440 242.804,145.440 241.807 C 145.440 240.196,145.356 240.078,145.003 241.192 M232.028 242.033 C 232.044 242.565,232.219 243.360,232.419 243.800 C 232.671 244.358,232.707 244.115,232.538 243.000 C 232.255 241.143,231.987 240.636,232.028 242.033 M246.655 243.455 C 246.513 244.486,246.474 245.408,246.569 245.502 C 246.663 245.596,246.865 244.839,247.018 243.818 C 247.171 242.798,247.210 241.876,247.104 241.771 C 246.998 241.665,246.796 242.423,246.655 243.455 M115.429 243.429 C 115.281 244.015,115.238 244.572,115.332 244.666 C 115.427 244.760,115.624 244.358,115.771 243.771 C 115.919 243.185,115.962 242.628,115.868 242.534 C 115.773 242.440,115.576 242.842,115.429 243.429 M145.000 245.200 C 144.848 245.891,144.807 246.541,144.909 246.642 C 145.011 246.744,145.209 246.253,145.350 245.550 C 145.683 243.883,145.360 243.560,145.000 245.200 M114.650 246.850 C 114.317 248.517,114.640 248.840,115.000 247.200 C 115.152 246.509,115.193 245.859,115.091 245.758 C 114.989 245.656,114.791 246.147,114.650 246.850 M232.840 247.433 C 232.862 248.075,233.033 249.050,233.220 249.600 C 233.449 250.274,233.484 249.949,233.328 248.600 C 233.069 246.350,232.779 245.659,232.840 247.433 M245.829 249.829 C 245.681 250.415,245.638 250.972,245.732 251.066 C 245.827 251.160,246.024 250.758,246.171 250.171 C 246.319 249.585,246.362 249.028,246.268 248.934 C 246.173 248.840,245.976 249.242,245.829 249.829 M144.868 249.800 C 144.862 250.240,145.011 250.960,145.200 251.400 C 145.638 252.419,145.638 251.368,145.200 250.000 C 144.943 249.196,144.877 249.157,144.868 249.800 M113.815 251.815 C 113.661 253.054,113.617 254.150,113.719 254.252 C 113.820 254.354,114.030 253.423,114.185 252.185 C 114.339 250.946,114.383 249.850,114.281 249.748 C 114.180 249.646,113.970 250.577,113.815 251.815 M233.067 251.067 C 232.705 251.428,232.728 252.708,233.100 252.938 C 233.265 253.040,233.400 252.601,233.400 251.962 C 233.400 251.323,233.385 250.800,233.367 250.800 C 233.348 250.800,233.213 250.920,233.067 251.067 M145.067 252.667 C 144.705 253.028,144.728 254.308,145.100 254.538 C 145.265 254.640,145.400 254.201,145.400 253.562 C 145.400 252.923,145.385 252.400,145.367 252.400 C 145.348 252.400,145.213 252.520,145.067 252.667 M219.302 254.800 C 219.294 255.790,219.421 257.680,219.585 259.000 C 219.855 261.180,219.884 261.235,219.898 259.600 C 219.906 258.610,219.779 256.720,219.615 255.400 C 219.345 253.220,219.316 253.165,219.302 254.800 M233.324 254.100 C 233.146 254.375,232.998 255.446,232.995 256.480 C 232.992 257.691,233.109 258.149,233.323 257.765 C 233.507 257.438,233.538 256.629,233.393 255.968 C 233.233 255.240,233.320 254.538,233.614 254.184 C 233.880 253.863,233.997 253.600,233.873 253.600 C 233.749 253.600,233.502 253.825,233.324 254.100 M113.015 258.215 C 112.861 259.454,112.817 260.550,112.919 260.652 C 113.020 260.754,113.230 259.823,113.385 258.585 C 113.539 257.346,113.583 256.250,113.481 256.148 C 113.380 256.046,113.170 256.977,113.015 258.215 M145.003 257.992 C 144.864 258.427,144.906 259.061,145.096 259.399 C 145.339 259.835,145.440 259.604,145.440 258.607 C 145.440 256.996,145.356 256.878,145.003 257.992 M145.138 260.700 C 144.936 261.684,144.948 271.482,145.153 271.872 C 145.289 272.131,145.400 269.656,145.400 266.372 C 145.400 261.041,145.339 259.724,145.138 260.700 M112.267 262.267 C 111.905 262.628,111.928 263.908,112.300 264.138 C 112.465 264.240,112.600 263.801,112.600 263.162 C 112.600 262.523,112.585 262.000,112.567 262.000 C 112.548 262.000,112.413 262.120,112.267 262.267 M220.111 265.800 C 220.104 266.900,220.229 269.060,220.387 270.600 C 220.668 273.338,220.674 273.351,220.690 271.200 C 220.699 269.990,220.575 267.830,220.414 266.400 C 220.139 263.954,220.121 263.918,220.111 265.800 M233.043 265.033 C 232.330 266.889,233.405 269.240,234.923 269.146 L 235.800 269.091 234.899 268.918 C 233.701 268.687,233.063 267.397,233.331 265.745 C 233.565 264.308,233.439 263.999,233.043 265.033 M112.267 265.867 C 111.907 266.227,111.939 268.085,112.316 268.678 C 112.483 268.941,112.615 268.356,112.610 267.379 C 112.604 266.402,112.585 265.602,112.567 265.601 C 112.548 265.601,112.413 265.720,112.267 265.867 M112.867 270.600 C 112.760 272.654,114.777 273.482,115.547 271.700 L 116.022 270.600 115.249 271.580 C 114.370 272.694,113.392 272.284,113.078 270.671 C 112.927 269.891,112.905 269.883,112.867 270.600 M144.206 284.206 C 144.045 287.858,144.000 290.934,144.107 291.040 C 144.214 291.147,144.433 288.247,144.594 284.594 C 144.755 280.942,144.800 277.866,144.693 277.760 C 144.586 277.653,144.367 280.553,144.206 284.206 M179.429 282.229 C 179.281 282.815,179.238 283.372,179.332 283.466 C 179.427 283.560,179.624 283.158,179.771 282.571 C 179.919 281.985,179.962 281.428,179.868 281.334 C 179.773 281.240,179.576 281.642,179.429 282.229 M143.422 297.822 C 143.272 298.625,143.228 299.362,143.326 299.460 C 143.424 299.557,143.627 298.981,143.778 298.178 C 143.928 297.375,143.972 296.638,143.874 296.540 C 143.776 296.443,143.573 297.019,143.422 297.822 M249.315 336.500 C 249.682 336.775,250.270 337.360,250.621 337.800 C 250.972 338.240,251.129 338.330,250.969 338.000 C 250.505 337.041,249.512 336.000,249.062 336.000 C 248.834 336.000,248.948 336.225,249.315 336.500 M254.394 343.003 C 255.987 344.921,256.121 345.045,255.686 344.196 C 255.459 343.753,254.852 343.034,254.337 342.598 C 253.433 341.834,253.435 341.848,254.394 343.003 M126.629 350.229 C 126.481 350.815,126.438 351.372,126.532 351.466 C 126.627 351.560,126.824 351.158,126.971 350.571 C 127.119 349.985,127.162 349.428,127.068 349.334 C 126.973 349.240,126.776 349.642,126.629 350.229 M124.068 364.600 C 124.062 365.040,124.211 365.760,124.400 366.200 C 124.838 367.219,124.838 366.168,124.400 364.800 C 124.143 363.996,124.077 363.957,124.068 364.600 M125.967 369.745 C 126.500 370.401,128.000 371.393,128.000 371.089 C 128.000 371.013,127.415 370.522,126.700 369.999 C 125.896 369.410,125.616 369.313,125.967 369.745 M253.559 372.100 C 252.326 373.365,251.432 374.400,251.572 374.400 C 251.925 374.400,256.195 370.046,255.977 369.910 C 255.879 369.849,254.791 370.835,253.559 372.100 M135.400 374.800 C 135.840 374.989,136.560 375.138,137.000 375.132 C 137.643 375.123,137.604 375.057,136.800 374.800 C 135.432 374.362,134.381 374.362,135.400 374.800 M140.000 374.800 C 139.176 375.064,139.141 375.126,139.800 375.154 C 140.240 375.173,140.870 375.013,141.200 374.800 C 141.901 374.347,141.414 374.347,140.000 374.800 " stroke="none" fill="#7c7c7c" fill-rule="evenodd"></path><path id="path4" d="M218.501 236.200 C 218.505 237.080,218.587 237.393,218.683 236.895 C 218.779 236.398,218.775 235.678,218.675 235.295 C 218.575 234.913,218.496 235.320,218.501 236.200 M218.901 246.200 C 218.905 247.080,218.987 247.393,219.083 246.895 C 219.179 246.398,219.175 245.678,219.075 245.295 C 218.975 244.913,218.896 245.320,218.901 246.200 " stroke="none" fill="#848484" fill-rule="evenodd"></path></g></svg>